<?xml version="1.0" encoding="utf-8"?>
<!-- Generator: Adobe Illustrator 19.2.1, SVG Export Plug-In . SVG Version: 6.00 Build 0)  -->
<svg version="1.1" id="Layer_1" xmlns="http://www.w3.org/2000/svg" xmlns:xlink="http://www.w3.org/1999/xlink" x="0px" y="0px"
	 viewBox="0 0 60 60" style="enable-background:new 0 0 60 60;" xml:space="preserve">
<style type="text/css">
	.st0{fill:#FFFFFF;}
</style>
<title>button-chat-2</title>
<path class="st0" d="M41.5,19.3h-23c-1.7,0-3,1.3-3,3V35c0,1.7,1.3,3,3,3h4.3v6.6l6-6.7h12.7c1.7,0,3-1.3,3-3V22.3
	C44.5,20.7,43.1,19.3,41.5,19.3z M22.2,24.8h8.4c0.3,0,0.6,0.3,0.6,0.6S30.9,26,30.6,26h-8.4c-0.3,0-0.6-0.3-0.6-0.6
	S21.8,24.8,22.2,24.8z M38.4,33.2H22.2c-0.3,0-0.6-0.3-0.6-0.6s0.3-0.6,0.6-0.6h16.3c0.3,0,0.6,0.3,0.6,0.6S38.8,33.2,38.4,33.2z
	 M38.4,29.6H22.2c-0.3,0-0.6-0.3-0.6-0.6s0.3-0.6,0.6-0.6h16.3c0.3,0,0.6,0.3,0.6,0.6C39,29.3,38.8,29.6,38.4,29.6z"/>
</svg>
