<?xml version="1.0" encoding="utf-8"?>
<!-- Generator: Adobe Illustrator 19.2.1, SVG Export Plug-In . SVG Version: 6.00 Build 0)  -->
<svg version="1.1" id="Layer_1" xmlns="http://www.w3.org/2000/svg" xmlns:xlink="http://www.w3.org/1999/xlink" x="0px" y="0px"
	 viewBox="0 0 60 60" style="enable-background:new 0 0 60 60;" xml:space="preserve">
<style type="text/css">
	.st0{fill:#FFFFFF;}
</style>
<title>button-chat-4</title>
<path class="st0" d="M30.5,17.3c8,0,14.4,5.7,14.4,12.7c0,2.8-1.1,5.6-2.9,7.7c0.4,0.8,1,1.5,1.7,2c0.4,0.2,0.6,0.7,0.5,1.1
	c-0.1,0.4-0.5,0.8-0.9,0.8c-0.5,0.1-0.9,0.1-1.4,0.1c-1.4,0-2.8-0.3-4-0.9c-2.3,1.2-4.8,1.8-7.4,1.8c-8,0-14.4-5.7-14.4-12.7
	S22.5,17.3,30.5,17.3z M30.5,41.3c2.5,0,4.9-0.6,7.1-1.8c0.1-0.1,0.2-0.1,0.4-0.1c0.1,0,0.3,0,0.4,0.1c1.2,0.7,2.5,1,3.9,0.9
	c-0.8-0.7-1.4-1.6-1.7-2.6c-0.1-0.3,0-0.5,0.2-0.7c1.8-1.9,2.8-4.4,2.9-7.1c0-6.2-5.8-11.3-13-11.3s-13,5.1-13,11.3
	S23.4,41.3,30.5,41.3L30.5,41.3z"/>
<circle class="st0" cx="30.5" cy="30" r="0.9"/>
<circle class="st0" cx="34.5" cy="30" r="0.9"/>
<circle class="st0" cx="26.5" cy="30" r="0.9"/>
</svg>
