<?xml version="1.0" encoding="utf-8"?>
<!-- Generator: Adobe Illustrator 19.2.1, SVG Export Plug-In . SVG Version: 6.00 Build 0)  -->
<svg version="1.1" id="Layer_1" xmlns="http://www.w3.org/2000/svg" xmlns:xlink="http://www.w3.org/1999/xlink" x="0px" y="0px"
	 viewBox="0 0 60 60" style="enable-background:new 0 0 60 60;" xml:space="preserve">
<style type="text/css">
	.st0{fill:#FFFFFF;}
</style>
<title>button-chat-3</title>
<path class="st0" d="M40.9,18.3H20.1c-2.2,0-3.9,1.8-3.9,3.9l0,0V35c0,2.2,1.8,3.9,3.9,3.9v5.8l8.3-5.7h12.4c2.2,0,3.9-1.8,3.9-3.9
	c0,0,0,0,0,0V22.3C44.8,20.1,43,18.3,40.9,18.3z M43.1,35c0,1.2-1,2.3-2.3,2.3h-13l-6.1,4.2v-4.2h-1.7c-1.2,0-2.3-1-2.3-2.3
	c0,0,0,0,0,0V22.3c0-1.2,1-2.3,2.3-2.3l0,0h20.7c1.2,0,2.3,1,2.3,2.3C43.1,22.3,43.1,35,43.1,35z"/>
<path class="st0" d="M23.8,24.3h13.3V26H23.8V24.3z"/>
<path class="st0" d="M23.8,27.8h13.3v1.7H23.8V27.8z"/>
<path class="st0" d="M23.8,31.4h13.3v1.7H23.8V31.4z"/>
</svg>
