<svg xmlns="http://www.w3.org/2000/svg" viewBox="0 0 60 60"><title>button-chat-4</title><path d="M30.5,17.38c-8,0-14.43,5.72-14.43,12.74A11.84,11.84,0,0,0,19,37.82a4.69,4.69,0,0,1-1.73,2.05A1.1,1.1,0,0,0,16.79,41a1.09,1.09,0,0,0,.92.84,9.78,9.78,0,0,0,1.37.09,8.4,8.4,0,0,0,4-.93,15.84,15.84,0,0,0,7.44,1.83c8,0,14.43-5.72,14.43-12.74S38.47,17.38,30.5,17.38Zm0,24a14.33,14.33,0,0,1-7.09-1.84,0.71,0.71,0,0,0-.36-0.09,0.75,0.75,0,0,0-.37.1,7,7,0,0,1-3.89.93,6.46,6.46,0,0,0,1.73-2.59,0.73,0.73,0,0,0-.15-0.74,10.26,10.26,0,0,1-2.86-7.06c0-6.23,5.83-11.3,13-11.3s13,5.07,13,11.3S37.66,41.42,30.5,41.42Z" fill="#fff"/><circle cx="30.5" cy="30.12" r="0.93" fill="#fff"/><circle cx="26.51" cy="30.12" r="0.93" fill="#fff"/><circle cx="34.48" cy="30.12" r="0.93" fill="#fff"/></svg>