<?xml version="1.0" encoding="utf-8"?>
<!-- Generator: Adobe Illustrator 16.0.0, SVG Export Plug-In . SVG Version: 6.00 Build 0)  -->
<!DOCTYPE svg PUBLIC "-//W3C//DTD SVG 1.1//EN" "http://www.w3.org/Graphics/SVG/1.1/DTD/svg11.dtd">
<svg version="1.1" id="Capa_1" xmlns="http://www.w3.org/2000/svg" xmlns:xlink="http://www.w3.org/1999/xlink" x="0px" y="0px"
	 width="703.77px" height="615.799px" viewBox="0 0 703.77 615.799" enable-background="new 0 0 703.77 615.799"
	 xml:space="preserve">
<path fill="#FFFFFF" d="M631.489,0H72.269C32.359,0,0,32.358,0,72.281V382.25c0,39.909,32.359,72.267,72.269,72.267h103.674v161.282
	L322.56,454.517H631.5c39.912,0,72.27-32.357,72.27-72.283V72.267C703.77,32.358,671.413-0.001,631.489,0z M161.281,132.176h205.266
	c8.107,0,14.662,6.567,14.662,14.662c0,8.093-6.555,14.662-14.662,14.662H161.281c-8.108,0-14.662-6.568-14.662-14.662
	C146.619,138.743,153.173,132.176,161.281,132.176z M557.153,337.442H161.281c-8.108,0-14.662-6.566-14.662-14.66
	c0-8.095,6.554-14.661,14.662-14.661h395.872c8.105,0,14.66,6.566,14.66,14.661C571.815,330.874,565.258,337.442,557.153,337.442z
	 M557.153,249.471H161.281c-8.108,0-14.662-6.567-14.662-14.662c0-8.094,6.554-14.662,14.662-14.662h395.872
	c8.105,0,14.66,6.568,14.66,14.662C571.813,242.904,565.258,249.471,557.153,249.471z"/>
</svg>
