<?xml version="1.0" encoding="utf-8"?>
<!-- Generator: Adobe Illustrator 19.2.1, SVG Export Plug-In . SVG Version: 6.00 Build 0)  -->
<svg version="1.1" id="Layer_1" xmlns="http://www.w3.org/2000/svg" xmlns:xlink="http://www.w3.org/1999/xlink" x="0px" y="0px" width="18px" height="18px"
	 viewBox="0 0 600 600" style="enable-background:new 0 0 600 600;" xml:space="preserve">
<style type="text/css">
	.st0{fill:#049CFF;}
	.st1{fill:#FFFFFF;}
</style>
<g id="XMLID_1849_">
	<path id="XMLID_1854_" class="st0" d="M300,0C134.3,0,0,134.3,0,300c0,63,19.4,121.5,52.6,169.8L5.2,600H300
		c165.7,0,300-134.3,300-300C600,134.3,465.7,0,300,0z"/>
	<g id="XMLID_1850_">
		<path id="XMLID_1853_" class="st1" d="M141.5,197.2c4-10.9,14.3-18.2,26-18.2h245.7l-8,22.1c-4,10.9-14.3,18.2-26,18.2H133.4
			L141.5,197.2z"/>
		<path id="XMLID_1852_" class="st1" d="M405.1,383.5c-4,10.9-14.3,18.2-26,18.2H133.4l8-22.1c4-10.9,14.3-18.2,26-18.2h245.7
			L405.1,383.5z"/>
		<path id="XMLID_1851_" class="st1" d="M509.2,292.3c-4,10.9-14.3,18.2-26,18.2H133.4l8-22.1c4-10.9,14.3-18.2,26-18.2h349.8
			L509.2,292.3z"/>
	</g>
</g>
</svg>
