<?xml version="1.0" encoding="utf-8"?>
<!-- Generator: Adobe Illustrator 19.2.1, SVG Export Plug-In . SVG Version: 6.00 Build 0)  -->
<svg version="1.1" id="Layer_1" xmlns="http://www.w3.org/2000/svg" xmlns:xlink="http://www.w3.org/1999/xlink" x="0px" y="0px"
	 viewBox="0 0 383.8 222.6" style="enable-background:new 0 0 383.8 222.6;" xml:space="preserve">
<style type="text/css">
	.st0{fill:#FFFFFF;}
</style>
<g id="XMLID_1849_">
	<g id="XMLID_1850_">
		<path id="XMLID_1853_" class="st0" d="M8,18.2C12,7.3,22.4,0,34,0h245.7l-8,22.1c-4,10.9-14.3,18.2-26,18.2H0L8,18.2z"/>
		<path id="XMLID_1852_" class="st0" d="M271.7,204.4c-4,10.9-14.3,18.2-26,18.2H0l8-22.1c4-10.9,14.3-18.2,26-18.2h245.7
			L271.7,204.4z"/>
		<path id="XMLID_1851_" class="st0" d="M375.8,113.3c-4,10.9-14.3,18.2-26,18.2H0l8-22.1c4-10.9,14.3-18.2,26-18.2h349.8
			L375.8,113.3z"/>
	</g>
</g>
</svg>
