<?xml version="1.0" encoding="utf-8"?>
<!-- Generator: Adobe Illustrator 19.2.1, SVG Export Plug-In . SVG Version: 6.00 Build 0)  -->
<svg version="1.1" id="Layer_1" xmlns="http://www.w3.org/2000/svg" xmlns:xlink="http://www.w3.org/1999/xlink" x="0px" y="0px" width="1800px" height="274px"
	 viewBox="0 0 1800 273.8" style="enable-background:new 0 0 1800 273.8;" xml:space="preserve">
<style type="text/css">
	.st0{fill:#283C49;}
	.st1{fill:#049CFF;}
	.st2{fill:#FFFFFF;}
</style>
<g id="XMLID_1862_">
	<g id="XMLID_1814_">
		<path id="XMLID_1841_" class="st0" d="M559.4,146.6c0,11.6-2.5,20.2-7.3,25.4c-4.8,5.2-11.8,7.7-21.3,7.7
			c-9.7,0-16.7-2.5-21.4-7.8c-4.8-5.3-7.2-13.8-7.2-25.3v-59h-25.8v59.5c0,9.3,1.3,17.6,3.7,24.5c2.5,7.1,6.3,13.2,11.1,17.9
			c4.8,4.8,10.7,8.4,17.5,10.7c6.6,2.2,14,3.3,22.1,3.3c8.1,0,15.5-1.1,22.1-3.4c6.8-2.3,12.7-5.9,17.5-10.7
			c4.8-4.8,8.5-10.8,11.1-17.9c2.5-7,3.7-15.2,3.7-24.5V87.6h-25.8V146.6z"/>
		<path id="XMLID_1838_" class="st0" d="M969.1,102c-5.5-5.3-12-9.6-19.4-12.6c-7.4-3.1-15.6-4.6-24.1-4.6c-8.6,0-16.7,1.6-24.1,4.6
			c-7.4,3.1-13.9,7.3-19.3,12.7c-5.4,5.4-9.8,11.7-12.8,18.8c-3.1,7.2-4.7,15-4.7,23.2c0,8.2,1.6,16,4.7,23.2
			c3.1,7.2,7.4,13.5,12.8,18.9c5.4,5.3,11.9,9.6,19.3,12.6c7.4,3.1,15.5,4.6,24.1,4.6c8.6,0,16.7-1.5,24.1-4.6
			c7.4-3,14-7.3,19.4-12.7c5.5-5.4,9.8-11.7,12.9-18.9c3.1-7.2,4.7-15,4.7-23.3c0-8.2-1.6-16-4.7-23.2
			C978.9,113.7,974.6,107.4,969.1,102z M961.1,144.2c0,5.2-0.9,10-2.8,14.3c-1.9,4.3-4.4,8.1-7.6,11.3c-3.2,3.1-6.9,5.6-11.2,7.4
			c-4.3,1.8-8.9,2.7-13.8,2.7c-4.9,0-9.6-0.9-13.9-2.7c-4.3-1.8-8.1-4.2-11.2-7.4c-3.2-3.1-5.7-6.9-7.6-11.2
			c-1.8-4.3-2.8-9.1-2.8-14.3c0-5.1,0.9-9.8,2.8-14.1c1.9-4.3,4.4-8.1,7.6-11.2c3.2-3.1,6.9-5.6,11.2-7.4c4.3-1.8,8.9-2.7,13.8-2.7
			c4.9,0,9.5,0.9,13.8,2.7c4.3,1.8,8,4.3,11.2,7.4c3.2,3.1,5.7,6.9,7.6,11.3C960.1,134.3,961.1,139.1,961.1,144.2z"/>
		<path id="XMLID_1837_" class="st0" d="M1124.6,52.4H1099v35.2h-18.4v24.1h18.4v45.2c0,8.3,1.1,15.4,3.1,21.1
			c2.1,5.9,5.2,10.7,9.1,14.4c3.9,3.7,8.5,6.3,13.7,7.9c4.9,1.4,10.3,2.2,16,2.2h17.4v-23.3h-16.1c-2.5,0-4.9-0.3-7.2-1
			c-2-0.6-3.6-1.6-5.1-3.1c-1.5-1.5-2.8-3.7-3.8-6.6c-1.1-3-1.6-6.9-1.6-11.7v-45.1h33.8V87.6h-33.8V52.4z"/>
		<path id="XMLID_1834_" class="st0" d="M1441.5,102c-5.5-5.3-12-9.6-19.4-12.6c-7.4-3.1-15.6-4.6-24.1-4.6
			c-8.6,0-16.7,1.6-24.1,4.6c-7.4,3.1-13.9,7.3-19.3,12.7c-5.4,5.4-9.8,11.7-12.8,18.8c-3.1,7.2-4.7,15-4.7,23.2
			c0,8.2,1.6,16,4.7,23.2c3.1,7.2,7.4,13.5,12.8,18.9c5.4,5.3,11.9,9.6,19.3,12.6c7.4,3.1,15.5,4.6,24.1,4.6
			c8.6,0,16.7-1.5,24.1-4.6c7.4-3,14-7.3,19.4-12.7c5.5-5.4,9.8-11.7,12.9-18.9c3.1-7.2,4.7-15,4.7-23.3c0-8.2-1.6-16-4.7-23.2
			C1451.4,113.7,1447,107.4,1441.5,102z M1433.5,144.2c0,5.2-0.9,9.9-2.8,14.3c-1.9,4.3-4.4,8.1-7.6,11.2c-3.2,3.1-6.9,5.6-11.2,7.4
			c-4.3,1.8-8.9,2.7-13.8,2.7c-4.9,0-9.6-0.9-13.9-2.7c-4.3-1.8-8.1-4.2-11.2-7.4c-3.2-3.1-5.7-6.9-7.6-11.2
			c-1.8-4.3-2.8-9.1-2.8-14.3c0-5.1,0.9-9.8,2.8-14.1c1.9-4.3,4.4-8.1,7.6-11.2c3.2-3.1,6.9-5.6,11.2-7.4c4.3-1.8,8.9-2.7,13.8-2.7
			c4.9,0,9.5,0.9,13.8,2.7c4.3,1.8,8,4.3,11.2,7.4c3.2,3.1,5.7,6.9,7.6,11.3C1432.6,134.3,1433.5,139.1,1433.5,144.2z"/>
		<path id="XMLID_1831_" class="st0" d="M852.5,120.9c-3.1-7.2-7.4-13.5-12.9-18.9c-5.5-5.3-12-9.6-19.4-12.6
			c-7.4-3.1-15.6-4.6-24.1-4.6c-8.6,0-16.7,1.6-24.1,4.6c-4,1.7-7.8,3.7-11.2,6.1v-7.9H735v148.3h25.7v-43.1
			c3.5,2.4,7.2,4.4,11.2,6.1c7.4,3.1,15.5,4.6,24.1,4.6c8.6,0,16.7-1.5,24.1-4.6c7.4-3,14-7.3,19.4-12.7c5.5-5.4,9.8-11.7,12.9-18.9
			c3.1-7.2,4.7-15,4.7-23.3C857.1,136,855.5,128.1,852.5,120.9z M828.7,158.4c-1.9,4.3-4.4,8.1-7.6,11.3c-3.2,3.1-6.9,5.6-11.2,7.4
			c-4.3,1.8-8.9,2.7-13.8,2.7c-4.9,0-9.6-0.9-13.9-2.7c-4.3-1.8-8.1-4.2-11.2-7.4c-3.2-3.1-5.7-6.9-7.6-11.2
			c-1.8-4.3-2.8-9.1-2.8-14.3c0-5.1,0.9-9.8,2.8-14.1c1.9-4.3,4.4-8.1,7.6-11.2c3.2-3.1,6.9-5.6,11.2-7.4c4.3-1.8,8.9-2.7,13.8-2.7
			c4.9,0,9.5,0.9,13.8,2.7c4.3,1.8,8,4.3,11.2,7.4c3.2,3.1,5.7,6.9,7.6,11.3c1.8,4.3,2.8,9.1,2.8,14.1
			C831.5,149.3,830.6,154.1,828.7,158.4z"/>
		<path id="XMLID_1828_" class="st0" d="M717.7,120.9c-3.1-7.2-7.4-13.5-12.9-18.9c-5.5-5.3-12-9.6-19.4-12.6
			c-7.4-3.1-15.6-4.6-24.1-4.6c-8.6,0-16.7,1.6-24.1,4.6c-4,1.7-7.8,3.7-11.2,6.1v-7.9h-25.7v148.3h25.7v-43.1
			c3.5,2.4,7.2,4.4,11.2,6.1c7.4,3.1,15.5,4.6,24.1,4.6c8.6,0,16.7-1.5,24.1-4.6c7.4-3,14-7.3,19.4-12.7c5.5-5.4,9.8-11.7,12.9-18.9
			c3.1-7.2,4.7-15,4.7-23.3C722.3,136,720.7,128.1,717.7,120.9z M693.9,158.4c-1.9,4.3-4.4,8.1-7.6,11.3c-3.2,3.1-6.9,5.6-11.2,7.4
			c-4.3,1.8-8.9,2.7-13.8,2.7c-4.9,0-9.6-0.9-13.9-2.7c-4.3-1.8-8.1-4.2-11.2-7.4c-3.2-3.1-5.7-6.9-7.6-11.2
			c-1.8-4.3-2.8-9.1-2.8-14.3c0-5.1,0.9-9.8,2.8-14.1c1.9-4.3,4.4-8.1,7.6-11.2c3.2-3.1,6.9-5.6,11.2-7.4c4.3-1.8,8.9-2.7,13.8-2.7
			c4.9,0,9.5,0.9,13.8,2.7c4.3,1.8,8,4.3,11.2,7.4c3.2,3.1,5.7,6.9,7.6,11.3c1.8,4.3,2.8,9.1,2.8,14.1
			C696.7,149.3,695.8,154.1,693.9,158.4z"/>
		<path id="XMLID_1825_" class="st0" d="M1562.8,87.6v9.5c-2.8-2.2-5.9-4.2-9.1-5.9c-3.9-2-8.1-3.6-12.6-4.7
			c-4.5-1.2-9.4-1.8-14.5-1.8c-8.6,0-16.7,1.6-24,4.6c-7.3,3.1-13.7,7.4-19.1,12.7c-5.3,5.4-9.5,11.7-12.5,18.9
			c-3,7.2-4.5,14.9-4.5,23.1c0,8.2,1.5,16,4.5,23.2c3,7.2,7.2,13.6,12.5,18.9c5.3,5.3,11.7,9.6,19,12.7c7.3,3.1,15.4,4.6,24,4.6
			c5,0,9.8-0.6,14.3-1.7c4.5-1.1,8.8-2.7,12.7-4.8c3.3-1.7,6.4-3.7,9.3-5.9v9.6h25.7V87.6v0L1562.8,87.6z M1553.1,169.7
			c-3.2,3.2-7,5.7-11.3,7.4c-4.3,1.8-9,2.7-14,2.7c-4.9,0-9.6-0.9-13.9-2.7c-4.3-1.8-8.2-4.3-11.3-7.4c-3.2-3.1-5.7-6.9-7.6-11.2
			c-1.8-4.3-2.8-9.1-2.8-14.3c0-5.1,0.9-9.8,2.8-14.1c1.9-4.3,4.4-8.1,7.6-11.3c3.2-3.1,7-5.6,11.3-7.4c4.3-1.8,9-2.7,14-2.7
			c4.9,0,9.6,0.9,13.9,2.7c4.3,1.8,8.2,4.3,11.3,7.4c3.2,3.1,5.8,6.9,7.7,11.3c1.9,4.3,2.8,9,2.8,14.1c0,5.2-0.9,9.9-2.8,14.3
			C1558.9,162.7,1556.3,166.5,1553.1,169.7z"/>
		<path id="XMLID_1824_" class="st0" d="M1660.8,87.6c-4.6,0-9,0.5-13.1,1.5c-4.1,1-7.8,2.3-11.2,4c-2.2,1.1-4.4,2.4-6.3,3.8v-9.2
			h-3.1l0,0h-22.6v0v113.1h25.6h0.1v-59c0.2-4.4,1-8.4,2.3-11.8c1.5-4,3.6-7.4,6.3-10c2.7-2.6,5.9-4.7,9.7-6
			c3.9-1.4,8.3-2.1,13.1-2.1h16.1V87.6H1660.8z"/>
		<path id="XMLID_1823_" class="st0" d="M455.6,133c-2.7-3.1-5.9-5.8-9.5-7.9c-3.4-2.1-7.2-3.8-11.1-5.2c-3.8-1.4-7.8-2.5-11.9-3.4
			c-3.9-0.8-7.8-1.6-11.7-2.3l-0.3,0c-5.6-0.6-10.7-1.5-15.3-2.4c-4.3-0.9-8.1-2.1-11.1-3.6c-2.7-1.4-4.8-3-6.2-5
			c-1.3-1.8-1.9-4-1.9-6.9c0-2.5,0.4-4.9,1.3-7.3c0.8-2.2,2.2-4.2,4.2-6c2.1-1.9,5-3.5,8.7-4.7c3.8-1.3,8.9-1.9,15-1.9
			c4.3,0,8.3,0.5,11.8,1.5c3.4,1,6.2,2.4,8.4,4.1c2.2,1.7,3.8,3.6,5,5.9c1.2,2.3,1.7,4.8,1.7,7.7v5h26.1v-5c0-6.3-1.2-12.1-3.7-17.4
			c-2.5-5.3-6-10-10.7-13.8c-4.5-3.7-10-6.7-16.4-8.8c-6.3-2.1-13.4-3.1-21.2-3.1c-10,0-18.7,1.2-25.7,3.6
			c-7.2,2.4-13.1,5.7-17.7,9.9c-4.6,4.2-8,9.2-10.1,14.7c-2,5.4-3,11.1-3,17c0,5.2,0.9,9.8,2.6,13.7c1.7,3.9,4.1,7.3,7.1,10
			c2.9,2.7,6.2,4.9,9.9,6.7c3.5,1.7,7.2,3.1,11.1,4.2c3.7,1,7.6,1.9,11.4,2.5c3.7,0.6,7.3,1.2,10.4,1.6c5.4,0.9,10.5,2,15.1,3.1
			c4.4,1.1,8.2,2.6,11.4,4.4c2.9,1.6,5.1,3.6,6.7,6c1.5,2.3,2.3,5.2,2.3,8.8c0,7-2.5,11.9-7.9,15.5c-5.9,3.9-13.2,5.8-25.3,5.8
			c-4.5,0-8.7-0.7-12.5-2c-3.8-1.3-7.2-3.1-10-5.3c-2.7-2.2-4.9-4.7-6.5-7.5c-1.5-2.6-2.2-5.3-2.2-8.1v-8.5h-26v8.5
			c0,5.8,1.3,11.6,3.9,17.2c2.6,5.6,6.4,10.6,11.3,15c4.9,4.3,10.9,7.8,17.8,10.5c7,2.7,15,4,23.8,4c9.2,0,15.9-1,23.2-2.9
			c7.5-2,14.1-4.9,19.4-8.6c5.5-3.9,9.8-8.7,12.7-14.3c2.9-5.6,4.4-12.1,4.4-19.1c0-5.4-0.8-10.3-2.4-14.5
			C460.5,139.9,458.3,136.2,455.6,133z"/>
		<path id="XMLID_1820_" class="st0" d="M1682.5,167.4c3.1,7.2,7.4,13.5,12.9,18.9c5.5,5.3,12,9.6,19.4,12.6
			c7.4,3.1,15.6,4.6,24.1,4.6c8.6,0,16.7-1.6,24.1-4.6c4-1.7,7.8-3.7,11.2-6.1v7.9h25.7V52.4h-25.7v43.1c-3.5-2.4-7.2-4.4-11.2-6.1
			c-7.4-3.1-15.5-4.6-24.1-4.6c-8.6,0-16.7,1.5-24.1,4.6c-7.4,3-14,7.3-19.4,12.7c-5.5,5.4-9.8,11.7-12.9,18.9
			c-3.1,7.2-4.7,15-4.7,23.3C1677.9,152.4,1679.5,160.2,1682.5,167.4z M1706.3,129.9c1.9-4.3,4.4-8.1,7.6-11.3
			c3.2-3.1,6.9-5.6,11.2-7.4c4.3-1.8,8.9-2.7,13.8-2.7c4.9,0,9.6,0.9,13.9,2.7c4.3,1.8,8.1,4.2,11.2,7.4c3.2,3.1,5.7,6.9,7.6,11.2
			c1.8,4.3,2.8,9.1,2.8,14.3c0,5.1-0.9,9.8-2.8,14.1c-1.9,4.3-4.4,8.1-7.6,11.2c-3.2,3.1-6.9,5.6-11.2,7.4
			c-4.3,1.8-8.9,2.7-13.8,2.7c-4.9,0-9.5-0.9-13.8-2.7c-4.3-1.8-8-4.3-11.2-7.4c-3.2-3.1-5.7-6.9-7.6-11.3
			c-1.8-4.3-2.8-9.1-2.8-14.1C1703.5,139,1704.4,134.2,1706.3,129.9z"/>
		<path id="XMLID_1816_" class="st0" d="M1328.7,95.7c0-23.9-19.2-43.3-42.9-43.3h-69.9v148.3h69.9c23.6,0,42.9-19.4,42.9-43.3
			c0-12.1-5-23-12.9-30.9C1323.7,118.7,1328.7,107.8,1328.7,95.7z M1285.8,76c10.6,0,19.3,8.8,19.3,19.7s-8.6,19.7-19.3,19.7h-44.2
			V76H1285.8z M1285.8,177.1h-44.2v-39.3h44.2c10.6,0,19.3,8.8,19.3,19.7C1305.1,168.3,1296.4,177.1,1285.8,177.1z"/>
		<path id="XMLID_1815_" class="st0" d="M1053.6,87.6c-4.6,0-9,0.5-13.1,1.5c-4.1,1-7.8,2.3-11.2,4c-2.2,1.1-4.4,2.4-6.3,3.8v-9.2
			l-25.7,0v0v113.1h25.6h0.1v-59c0.2-4.4,1-8.4,2.3-11.8c1.5-4,3.6-7.4,6.3-10c2.7-2.6,5.9-4.7,9.7-6c3.9-1.4,8.3-2.1,13.1-2.1h16.1
			V87.6H1053.6z"/>
	</g>
	<g id="XMLID_1847_">
		<path id="XMLID_1842_" class="st1" d="M136.9,0C61.3,0,0,61.3,0,136.9c0,28.8,8.9,55.4,24,77.5L2.4,273.8h134.5
			c75.6,0,136.9-61.3,136.9-136.9C273.8,61.3,212.5,0,136.9,0z"/>
		<g id="XMLID_1813_">
			<path id="XMLID_1845_" class="st2" d="M64.6,90c1.8-5,6.5-8.3,11.8-8.3h112.2l-3.7,10.1c-1.8,5-6.5,8.3-11.8,8.3H60.9L64.6,90z"
				/>
			<path id="XMLID_1844_" class="st2" d="M184.9,175c-1.8,5-6.5,8.3-11.8,8.3H60.9l3.7-10.1c1.8-5,6.5-8.3,11.8-8.3h112.2L184.9,175
				z"/>
			<path id="XMLID_1843_" class="st2" d="M232.4,133.4c-1.8,5-6.5,8.3-11.8,8.3H60.9l3.7-10.1c1.8-5,6.5-8.3,11.8-8.3h159.6
				L232.4,133.4z"/>
		</g>
	</g>
</g>
</svg>
