<?xml version="1.0" encoding="utf-8"?>
<!-- Generator: Adobe Illustrator 19.2.1, SVG Export Plug-In . SVG Version: 6.00 Build 0)  -->
<svg version="1.1" id="Layer_1" xmlns="http://www.w3.org/2000/svg" xmlns:xlink="http://www.w3.org/1999/xlink" x="0px" y="0px"
	 viewBox="0 0 258.8 258.8" style="enable-background:new 0 0 258.8 258.8;" xml:space="preserve">
<style type="text/css">
	.st0{fill:#EDEDED;}
	.st1{fill:#C9C7C7;}
</style>
<rect class="st0" width="258.8" height="258.8"/>
<path class="st1" d="M142.4,121c7.2,7.2,7.2,18.9,0,26.1s-18.9,7.2-26.1,0c-7.2-7.2-7.2-18.9,0-26.1
	C123.6,113.8,135.2,113.8,142.4,121"/>
<path class="st1" d="M184.7,83.3H172l-9.2-18.4H96l-9.2,18.5l-12.7,0c-10.1,0-18.4,8.3-18.4,18.4l0,73.7c0,10.2,8.3,18.4,18.4,18.4
	h110.7c10.2,0,18.4-8.3,18.4-18.4v-73.8C203.2,91.6,194.9,83.3,184.7,83.3z M129.4,170.9c-20.3,0-36.9-16.5-36.9-36.9
	c0-20.3,16.5-36.9,36.9-36.9s36.9,16.5,36.9,36.9C166.3,154.4,149.7,170.9,129.4,170.9L129.4,170.9z"/>
</svg>
