<?xml version="1.0" standalone="no"?>
<!DOCTYPE svg PUBLIC "-//W3C//DTD SVG 1.1//EN" "http://www.w3.org/Graphics/SVG/1.1/DTD/svg11.dtd" >
<svg xmlns="http://www.w3.org/2000/svg">
<metadata>Generated by IcoMoon</metadata>
<defs>
<font id="Support-Board" horiz-adv-x="1024">
<font-face units-per-em="1024" ascent="1024" descent="0" />
<missing-glyph horiz-adv-x="1024" />
<glyph unicode="&#x20;" horiz-adv-x="0" d="" />
<glyph unicode="&#x30;" glyph-name="plus-2" d="M974 562h-410v410c0 30-24 52-52 52s-50-22-50-52v-410h-410c-30 0-52-22-52-50s22-52 52-52h410v-410c0-28 22-50 50-50s52 22 52 50v410h410c28 0 50 24 50 52s-22 50-50 50z" />
<glyph unicode="&#x41;" glyph-name="back" d="M899.2 499.2l-6.4 6.4c-73.6 86.4-208 188.8-441.6 198.4v153.6c0 9.6-3.2 22.4-22.4 32-12.8 6.4-28.8 3.2-38.4-6.4l-377.6-313.6c-9.6-6.4-16-16-16-28.8s6.4-22.4 12.8-28.8l377.6-313.6c9.6-9.6 25.6-12.8 38.4-6.4s19.2 19.2 19.2 35.2v150.4c128 0 377.6-6.4 505.6-230.4 6.4-12.8 19.2-19.2 32-19.2 3.2 0 6.4 0 9.6 3.2 16 3.2 25.6 16 25.6 35.2 6.4 89.6-25.6 220.8-118.4 332.8zM393.6 444.8c-6.4-6.4-12.8-16-12.8-25.6v-112l-288 236.8 288 236.8v-112c0-19.2 16-35.2 35.2-35.2 345.6-3.2 467.2-204.8 512-326.4-160 150.4-377.6 150.4-512 150.4v0c-9.6 0-19.2-6.4-22.4-12.8z" />
<glyph unicode="&#x42;" glyph-name="file" d="M819.2 320v0 0c-16 9.6-32 6.4-44.8-3.2l-25.6-25.6h3.2l-35.2-38.4v188.8c0 19.2-16 35.2-35.2 35.2s-35.2-16-35.2-35.2v-188.8l-60.8 64c-12.8 12.8-38.4 12.8-51.2 0-6.4-6.4-9.6-16-9.6-22.4 0-9.6 3.2-19.2 9.6-25.6l121.6-131.2c6.4-6.4 16-9.6 25.6-9.6s19.2 3.2 25.6 9.6l121.6 131.2c12.8 16 12.8 35.2-3.2 51.2-3.2 0-3.2 0-6.4 0zM752 592v176c0 9.6-3.2 19.2-9.6 25.6l-211.2 220.8c-6.4 6.4-16 9.6-25.6 9.6h-332.8c-70.4 0-124.8-57.6-124.8-128v-630.4c0-70.4 57.6-128 124.8-128h256c57.6-86.4 153.6-137.6 252.8-137.6 166.4 0 300.8 134.4 300.8 300.8-3.2 137.6-99.2 259.2-230.4 291.2zM576 803.2c-19.2 0-35.2 16-35.2 35.2v60.8l92.8-99.2h-57.6zM678.4 70.4c-124.8 0-227.2 102.4-227.2 230.4 0 124.8 102.4 227.2 227.2 227.2s227.2-102.4 227.2-227.2c0-124.8-102.4-230.4-227.2-230.4zM576 732.8h105.6v-131.2c0 0-3.2 0-3.2 0-67.2 0-137.6-25.6-195.2-70.4h-259.2c-19.2 0-35.2-16-35.2-35.2s12.8-35.2 35.2-35.2h198.4c-6.4-12.8-12.8-22.4-19.2-35.2h-179.2c-19.2 0-35.2-12.8-35.2-35.2 0-19.2 16-35.2 35.2-35.2h156.8c-3.2-16-6.4-32-6.4-51.2 0-32 6.4-60.8 16-89.6h-224c-32 0-54.4 25.6-54.4 54.4v630.4c0 32 25.6 57.6 54.4 57.6h300.8v-115.2c3.2-60.8 51.2-108.8 108.8-108.8zM435.2 633.6h-211.2c-19.2 0-35.2-12.8-35.2-35.2 0-19.2 16-35.2 35.2-35.2h211.2c19.2 0 35.2 16 35.2 35.2 3.2 19.2-12.8 35.2-35.2 35.2z" />
<glyph unicode="&#x43;" glyph-name="check-circle" d="M512 1024c-281.6 0-512-230.4-512-512s230.4-512 512-512c281.6 0 512 230.4 512 512 0 284.8-230.4 512-512 512zM512 73.6c-243.2 0-438.4 198.4-438.4 438.4 0 243.2 198.4 438.4 438.4 438.4 243.2 0 438.4-198.4 438.4-438.4s-195.2-438.4-438.4-438.4zM688 643.2c-6.4 6.4-16 9.6-25.6 9.6-6.4 0-12.8-3.2-19.2-6.4v0l-188.8-188.8-64 64c-6.4 6.4-16 9.6-25.6 9.6s-19.2-3.2-25.6-9.6c-6.4-6.4-9.6-16-9.6-25.6s3.2-19.2 9.6-25.6l86.4-86.4c9.6-12.8 22.4-12.8 25.6-12.8 9.6 0 19.2 3.2 25.6 9.6l211.2 208c6.4 6.4 9.6 16 9.6 25.6 0 12.8-3.2 22.4-9.6 28.8z" />
<glyph unicode="&#x44;" glyph-name="reload" d="M240 809.6v0c144 131.2 348.8 140.8 499.2 28.8l-99.2-3.2c-22.4 0-35.2-19.2-35.2-35.2 3.2-19.2 19.2-35.2 35.2-35.2l185.6 6.4c19.2 3.2 35.2 19.2 35.2 38.4l-6.4 182.4c0 22.4-19.2 35.2-35.2 35.2-19.2 0-35.2-16-35.2-38.4l3.2-96c-73.6 57.6-163.2 86.4-256 92.8-124.8 6.4-246.4-35.2-336-121.6-128-115.2-179.2-288-140.8-454.4 6.4-16 19.2-25.6 35.2-25.6h9.6c19.2 6.4 28.8 25.6 25.6 41.6-32 140.8 9.6 284.8 115.2 384zM969.6 611.2v0 6.4c-6.4 19.2-25.6 28.8-44.8 25.6-9.6-3.2-16-9.6-22.4-16-6.4-9.6-6.4-19.2-3.2-25.6 35.2-140.8-9.6-288-118.4-384-70.4-67.2-166.4-102.4-265.6-102.4-86.4 0-169.6 28.8-236.8 80l99.2 9.6c19.2 3.2 35.2 19.2 32 41.6-3.2 19.2-19.2 32-38.4 32 0 0 0 0 0 0l-182.4-19.2c-22.4-3.2-35.2-19.2-32-38.4l16-182.4c3.2-19.2 19.2-32 35.2-32h6.4c9.6 0 19.2 6.4 22.4 12.8 6.4 6.4 6.4 16 6.4 22.4l-9.6 92.8c73.6-54.4 163.2-86.4 256-89.6h22.4c115.2 0 227.2 41.6 313.6 121.6 128 108.8 182.4 281.6 144 444.8z" />
<glyph unicode="&#x45;" glyph-name="help" d="M512 857.6c-102.4 0-185.6-83.2-185.6-185.6 0-19.2 16-35.2 35.2-35.2s35.2 16 35.2 35.2c0 60.8 51.2 112 112 112s112-51.2 112-112c0-38.4-32-89.6-83.2-108.8-38.4-16-67.2-51.2-67.2-92.8v-44.8c0-19.2 16-35.2 35.2-35.2s35.2 16 35.2 35.2v44.8c0 12.8 6.4 22.4 19.2 25.6 73.6 25.6 131.2 102.4 131.2 176 6.4 102.4-76.8 185.6-179.2 185.6zM512 304c-25.6 0-44.8-19.2-44.8-44.8s19.2-44.8 44.8-44.8c25.6 0 44.8 19.2 44.8 44.8s-19.2 44.8-44.8 44.8zM512 1024c-281.6 0-512-230.4-512-512s230.4-512 512-512 512 230.4 512 512-230.4 512-512 512zM512 73.6c-243.2 0-441.6 198.4-441.6 441.6s198.4 441.6 441.6 441.6c243.2 0 441.6-198.4 441.6-441.6 0-246.4-198.4-441.6-441.6-441.6z" />
<glyph unicode="&#x46;" glyph-name="clock" d="M768 550.4h-217.6v291.2c0 19.2-16 35.2-38.4 35.2s-38.4-16-38.4-35.2v-339.2l3.2-3.2v-3.2l3.2-3.2c6.4-9.6 19.2-16 32-16h256c22.4 0 38.4 16 38.4 38.4s-16 35.2-38.4 35.2zM512 1024c-281.6 0-512-230.4-512-512s230.4-512 512-512c281.6 0 512 230.4 512 512 0 284.8-230.4 512-512 512zM512 73.6c-243.2 0-438.4 198.4-438.4 438.4 0 243.2 198.4 438.4 438.4 438.4 243.2 0 438.4-198.4 438.4-438.4s-195.2-438.4-438.4-438.4z" />
<glyph unicode="&#x47;" glyph-name="next" d="M1011.2 572.8l-377.6 313.6c-12.8 9.6-28.8 9.6-38.4 3.2-12.8-6.4-19.2-19.2-19.2-32v-153.6c-240-9.6-374.4-118.4-448-204.8-92.8-112-124.8-243.2-124.8-329.6 0-16 9.6-28.8 25.6-35.2 3.2-3.2 9.6-3.2 9.6-3.2 12.8 0 25.6 9.6 32 19.2 128 224 377.6 230.4 505.6 230.4v-150.4c0-16 6.4-28.8 19.2-32 12.8-6.4 28.8-3.2 38.4 6.4l380.8 313.6c6.4 6.4 12.8 16 12.8 28.8-3.2 9.6-9.6 19.2-16 25.6zM633.6 444.8c-6.4 6.4-16 9.6-25.6 9.6-134.4 0-352 0-512-150.4 41.6 121.6 166.4 323.2 512 326.4 19.2 0 35.2 16 35.2 35.2v112l288-236.8-288-236.8v112c0 16-3.2 25.6-9.6 28.8z" />
<glyph unicode="&#x48;" glyph-name="currency" d="M553.6 816c-19.2 0-35.2-16-35.2-35.2v-48h-3.2c-67.2 0-124.8-54.4-124.8-124.8 0-67.2 54.4-124.8 124.8-124.8h80c28.8 0 51.2-25.6 51.2-54.4s-22.4-54.4-51.2-54.4h-144c-19.2 0-35.2-16-35.2-35.2s16-35.2 35.2-35.2h70.4v-51.2c0-19.2 16-35.2 35.2-35.2s35.2 16 35.2 35.2v51.2h6.4c67.2 0 121.6 54.4 121.6 124.8 0 67.2-54.4 124.8-124.8 124.8h-80c-28.8 0-54.4 25.6-54.4 54.4s25.6 51.2 54.4 51.2h140.8c19.2 0 35.2 16 35.2 35.2s-16 35.2-35.2 35.2h-64v48c-3.2 22.4-19.2 38.4-38.4 38.4zM886.4 848c-89.6 89.6-208 137.6-332.8 137.6-128 0-246.4-51.2-336-140.8-6.4-6.4-9.6-16-9.6-25.6s3.2-19.2 9.6-25.6c12.8-12.8 38.4-12.8 51.2 0 76.8 76.8 176 118.4 284.8 118.4h3.2c105.6 0 204.8-41.6 278.4-115.2 76.8-76.8 118.4-176 118.4-284.8 0-220.8-179.2-400-400-400-211.2 0-387.2 166.4-396.8 377.6l19.2-19.2c6.4-9.6 12.8-12.8 25.6-12.8s22.4 3.2 25.6 9.6c6.4 6.4 9.6 16 9.6 25.6s-3.2 19.2-9.6 25.6l-83.2 83.2c-6.4 6.4-16 9.6-25.6 9.6s-19.2-3.2-25.6-9.6l-83.2-83.2c-6.4-6.4-9.6-16-9.6-25.6s3.2-19.2 9.6-25.6c6.4-6.4 16-9.6 25.6-9.6s19.2 3.2 25.6 9.6l19.2 22.4c6.4-118.4 54.4-227.2 137.6-310.4 89.6-89.6 208-137.6 332.8-137.6s243.2 48 332.8 137.6c89.6 86.4 137.6 204.8 137.6 332.8 3.2 131.2-44.8 252.8-134.4 336z" />
<glyph unicode="&#x49;" glyph-name="language" d="M905.6 1027.2h-790.4c-64 0-118.4-51.2-118.4-118.4v-790.4c0-64 51.2-118.4 118.4-118.4h790.4c64 0 118.4 51.2 118.4 118.4v790.4c0 64-51.2 118.4-118.4 118.4zM905.6 76.8h-790.4c-25.6 0-41.6 19.2-41.6 41.6v790.4c0 25.6 19.2 41.6 41.6 41.6h790.4c25.6 0 41.6-19.2 41.6-41.6v-790.4c3.2-25.6-16-41.6-41.6-41.6zM528 800v0c-9.6 6.4-22.4 6.4-32 0v0c-9.6-6.4-19.2-16-22.4-28.8l-182.4-508.8c-6.4-19.2 3.2-38.4 22.4-48h12.8c16 0 28.8 9.6 35.2 22.4l51.2 144h201.6l51.2-144c6.4-12.8 19.2-22.4 35.2-22.4h16c19.2 9.6 25.6 28.8 19.2 48l-179.2 505.6c-9.6 16-19.2 25.6-28.8 32zM588.8 454.4h-150.4l76.8 211.2 73.6-211.2z" />
<glyph unicode="&#x4d;" glyph-name="plus" d="M984 552h-432v432c0 22-18 40-40 40s-40-18-40-40v-432h-432c-22 0-40-18-40-40s18-40 40-40h432v-432c0-22 18-40 40-40s40 18 40 40v432h432c22 0 40 18 40 40s-18 40-40 40z" />
<glyph unicode="&#x4e;" glyph-name="dislike" d="M1011.2 611.2c0 28.8-9.6 57.6-28.8 83.2 3.2 9.6 6.4 22.4 6.4 41.6 3.2 28.8-3.2 73.6-48 112 3.2 28.8-3.2 57.6-16 80-25.6 44.8-70.4 73.6-137.6 86.4-44.8 6.4-99.2 9.6-169.6 6.4-115.2 3.2-224-9.6-262.4-12.8h-6.4c-6.4 0-9.6 0-12.8 0l-44.8-6.4c-16 9.6-35.2 16-54.4 16h-128c-54.4 0-99.2-44.8-99.2-99.2v-339.2c0-54.4 44.8-96 99.2-96h128c12.8 0 25.6 3.2 35.2 6.4 9.6-16 19.2-35.2 38.4-54.4l6.4-3.2c64-51.2 140.8-233.6 166.4-300.8-3.2-32-3.2-76.8 19.2-105.6 12.8-12.8 28.8-22.4 51.2-22.4 12.8 0 76.8 3.2 115.2 54.4 35.2 51.2 38.4 121.6 6.4 214.4-19.2 57.6-25.6 86.4-25.6 105.6 6.4-3.2 16-3.2 22.4-3.2 0 0 3.2 0 3.2 0v0c12.8-3.2 51.2-9.6 96-12.8 83.2-3.2 140.8 9.6 176 44.8 54.4 48 41.6 108.8 32 134.4 22.4 19.2 28.8 44.8 32 70.4v0zM595.2 444.8c-32-28.8-28.8-83.2 6.4-198.4 22.4-67.2 25.6-115.2 6.4-140.8-12.8-16-32-22.4-41.6-22.4-3.2 9.6-3.2 28.8 0 48 0 6.4 0 12.8-3.2 19.2v3.2c-28.8 80-108.8 272-192 336-22.4 25.6-32 51.2-35.2 64 3.2 9.6 3.2 19.2 3.2 25.6v348.8h9.6c0 0 3.2 0 6.4 0 96 9.6 192 16 268.8 16h3.2c64 3.2 115.2 3.2 150.4-6.4 44.8-9.6 73.6-25.6 83.2-48 12.8-22.4 6.4-44.8 6.4-44.8-6.4-16 0-32 12.8-44.8 35.2-25.6 44.8-57.6 28.8-92.8 0 0 0 0 0 0-9.6-16-6.4-35.2 3.2-48 19.2-19.2 22.4-35.2 22.4-44.8 0-19.2-12.8-35.2-16-38.4l-3.2-3.2c-6.4-6.4-12.8-19.2-12.8-32 0 0 0-12.8 3.2-19.2 0-3.2 3.2-3.2 3.2-6.4 3.2-3.2 6.4-9.6 6.4-19.2 3.2-16 0-25.6-12.8-38.4-35.2-32-147.2-25.6-211.2-9.6v0h-3.2c-6.4 0-9.6 3.2-16 3.2s-12.8 3.2-16 3.2c-22.4 9.6-44.8 6.4-60.8-9.6zM259.2 918.4v-339.2c0-9.6-9.6-19.2-19.2-19.2h-128c-9.6 0-19.2 9.6-19.2 19.2v339.2c0 12.8 9.6 19.2 19.2 19.2h128c12.8 0 19.2-6.4 19.2-19.2zM678.4 374.4v0 0 0z" />
<glyph unicode="&#x4f;" glyph-name="like" d="M988.8 288c0 16-3.2 28.8-6.4 41.6 19.2 25.6 28.8 54.4 28.8 83.2-3.2 25.6-9.6 51.2-25.6 73.6 9.6 28.8 22.4 86.4-32 134.4-35.2 32-92.8 48-176 44.8-44.8-3.2-83.2-9.6-99.2-12.8-3.2 0-3.2 0-6.4 0-9.6 0-16-3.2-25.6-6.4 0 16 6.4 48 25.6 112 28.8 92.8 28.8 163.2-6.4 211.2-38.4 51.2-99.2 54.4-112 54.4-19.2 0-35.2-6.4-48-19.2-22.4-25.6-22.4-73.6-19.2-105.6-25.6-70.4-102.4-252.8-169.6-304l-3.2-3.2c-19.2-19.2-28.8-38.4-38.4-57.6-12.8 6.4-25.6 6.4-38.4 6.4h-128c-54.4 0-96-41.6-96-96v-342.4c0-54.4 44.8-96 96-96h128c19.2 0 35.2 6.4 54.4 16l48-6.4c0 0 6.4 0 16 0 41.6-3.2 150.4-16 265.6-12.8 12.8 0 22.4 0 35.2 0s22.4 0 32 0c44.8 0 73.6 3.2 99.2 9.6 67.2 12.8 112 41.6 137.6 86.4 12.8 22.4 16 51.2 16 80 44.8 38.4 51.2 80 48 108.8zM867.2 179.2c0 0 0 0 0 0 3.2-9.6 6.4-28.8-3.2-48-16-22.4-44.8-41.6-89.6-51.2-35.2-6.4-86.4-9.6-153.6-6.4h-3.2c-76.8 0-176 3.2-268.8 16-3.2 0-6.4 0-3.2 0h-12.8c0 0 0 0 0 3.2s0 6.4 0 9.6v342.4c0 6.4 0 16-3.2 25.6 3.2 12.8 12.8 41.6 35.2 67.2 83.2 64 160 259.2 188.8 323.2 3.2 9.6 6.4 16 6.4 19.2v6.4c0 0 0 3.2 0 3.2 0 3.2 0 9.6 0 12.8-3.2 22.4 0 41.6 0 51.2 12.8 0 35.2-6.4 48-25.6 19.2-25.6 19.2-76.8-6.4-147.2-35.2-108.8-38.4-169.6-6.4-198.4 16-12.8 38.4-12.8 54.4-9.6 12.8 3.2 22.4 6.4 32 6.4h6.4c64 12.8 176 22.4 214.4-12.8 28.8-28.8 6.4-64 3.2-67.2-9.6-12.8-6.4-35.2 6.4-48 0 0 19.2-19.2 22.4-44.8 0-16-6.4-35.2-22.4-51.2-12.8-9.6-16-28.8-6.4-41.6 0 0 6.4-16 9.6-32 0-25.6-12.8-48-38.4-67.2-9.6-3.2-12.8-19.2-9.6-35.2zM236.8 83.2h-128c-12.8 0-22.4 9.6-22.4 22.4v342.4c0 12.8 9.6 22.4 22.4 22.4h128c12.8 0 22.4-9.6 22.4-22.4v-342.4c3.2-12.8-6.4-22.4-22.4-22.4z" />
<glyph unicode="&#x50;" glyph-name="send" d="M88 14c-62-32-100-4-84 66l66 294c8 34 42 66 78 70l396 46c106 12 106 32 0 44l-396 46c-36 4-70 34-78 68l-66 298c-16 68 22 96 84 64l824-438c62-34 62-86 0-120l-824-438z" />
<glyph unicode="&#x51;" glyph-name="refresh" d="M560 2c206 24 372 188 394 394 32 268-178 496-440 500v120c0 6-8 10-14 6l-248-182c-4-4-4-10 0-12l248-182c6-4 14 0 14 6v120c184-4 332-160 320-346-12-162-142-292-304-302-170-12-314 110-340 272-6 30-32 52-62 52-38 0-66-34-60-70 36-230 248-402 492-376z" />
<glyph unicode="&#x52;" glyph-name="woocommerce" d="M8 702c6 10 18 14 30 14 22 2 36-8 40-32 14-98 30-180 46-246l102 192c8 18 20 28 34 28 20 2 32-12 38-38 10-54 24-108 44-158 12 116 32 202 60 254 6 12 18 20 32 20 10 2 20-2 28-10 8-6 14-14 14-26 2-8 0-14-4-22-18-32-32-88-44-166-12-76-16-134-14-176 2-12 0-22-6-32-4-8-14-16-24-16-12-2-24 4-36 18-44 42-78 108-102 196-30-60-52-104-68-134-26-52-50-78-68-80-14 0-24 10-34 32-22 60-48 178-76 352-2 10 2 22 8 30zM1002 630c-16 28-42 48-74 54-8 2-16 2-26 2-44 0-80-24-108-70-24-38-36-84-36-130 0-36 8-66 22-92 16-28 42-48 74-52 8-2 16-4 26-4 44 0 80 24 108 70 24 40 36 84 36 130 0 36-8 66-22 92zM944 502c-6-30-18-54-36-68-12-12-26-18-38-16-10 2-20 12-26 30-6 14-8 28-8 42 0 12 0 24 2 34 6 20 14 38 26 56 14 22 30 32 48 28 10-2 20-12 26-30 6-14 8-28 8-42 0-12 0-24-2-34zM712 630c-16 28-42 48-74 54-8 2-16 2-24 2-46 0-82-24-110-70-24-38-36-84-36-130 0-36 8-66 22-92 16-28 44-48 74-52 8-2 18-4 26-4 44 0 80 24 108 70 24 40 36 84 36 130 0 36-6 66-22 92zM654 502c-6-30-18-54-36-68-12-12-26-18-38-16-10 2-20 12-26 30-6 14-8 28-8 42 0 12 0 24 2 34 4 20 14 38 26 56 14 22 30 32 48 28 10-2 20-12 26-30 6-14 8-28 8-42 2-12 0-24-2-34z" />
<glyph unicode="&#x53;" glyph-name="social-facebook" d="M592 0v468h156l24 182h-180v116c0 52 14 88 90 88h96v162c-16 4-74 8-140 8-140 0-234-84-234-240v-134h-158v-182h158v-468z" />
<glyph unicode="&#x54;" glyph-name="social-twitter" d="M1024 830c-38-18-78-28-120-34 42 26 76 68 92 116-42-24-86-40-134-50-38 40-94 66-154 66-116 0-208-94-208-210 0-16 0-32 4-48-174 8-328 92-432 220-18-32-30-68-30-106 0-74 38-138 94-174-34 0-68 10-96 26 0-2 0-2 0-4 0-102 74-186 170-206-18-4-36-6-56-6-14 0-26 0-40 4 28-84 104-146 196-148-70-56-162-88-260-88-16 0-34 0-50 2 92-60 204-94 322-94 386 0 598 320 598 598 0 8 0 18-2 26 42 30 78 68 106 110z" />
<glyph unicode="&#x55;" glyph-name="social-linkedin" d="M148 972c-70 0-116-46-116-108 0-58 44-106 114-106v0c72 0 118 48 118 106-2 62-46 108-116 108zM44 674h206v-620h-206zM756 688c-112 0-186-104-186-104v90h-206v-620h206v346c0 18 0 36 6 50 16 38 48 76 106 76 74 0 104-58 104-140v-332h206v356c0 190-102 278-236 278z" />
<glyph unicode="&#x56;" glyph-name="social-pinterest" d="M526 1024c-280 0-430-180-430-376 0-90 50-204 132-240 12-6 20-4 22 8 2 8 14 50 18 70 2 6 2 12-4 18-28 32-48 88-48 142 0 136 108 270 294 270 160 0 272-104 272-254 0-168-90-284-206-284-64 0-110 50-96 112 18 74 54 154 54 208 0 48-26 86-82 86-64 0-118-64-118-150 0-56 20-92 20-92s-64-260-76-310c-20-82 2-214 4-226 2-6 8-8 12-4 6 10 84 120 106 200 8 30 40 148 40 148 22-38 84-70 150-70 196 0 338 172 338 386 0 204-176 358-402 358z" />
<glyph unicode="&#x57;" glyph-name="social-whatsapp" d="M1014 530c0-272-224-492-498-492-88 0-170 22-240 60l-276-88 90 266c-46 74-72 162-72 254 0 274 224 494 498 494s498-220 498-494zM516 946c-230 0-418-186-418-416 0-90 30-174 80-242l-52-154 160 50c66-44 144-68 230-68 230 0 418 186 418 414 0 230-188 416-418 416zM766 416c-2 6-10 8-22 14-12 8-72 36-84 40s-20 6-28-6c-8-12-30-40-38-48s-14-8-26-2c-12 6-52 18-98 60-36 32-62 72-68 84-8 12 0 18 6 24 4 6 12 14 18 22 6 6 8 12 12 20s2 14-2 20c-2 6-26 66-36 90-12 24-22 20-28 20-8 0-16 2-24 2s-22-4-32-16c-12-12-42-40-42-100s42-118 48-126c8-8 86-134 210-182s124-32 146-30c22 2 72 28 82 58 10 28 10 52 6 56z" />
<glyph unicode="&#x58;" glyph-name="social-messenger" d="M512 1024c-282 0-512-212-512-474 0-150 74-282 190-370v-180l176 96c46-14 94-20 146-20 282 0 512 212 512 474s-230 474-512 474zM562 386l-130 138-254-138 280 296 134-138 250 138z" />
<glyph unicode="&#x59;" glyph-name="bar-chart" d="M265.6 569.6h-230.4c-19.2 0-35.2-16-35.2-35.2v-470.4c0-19.2 16-35.2 35.2-35.2h230.4c19.2 0 35.2 16 35.2 35.2v470.4c0 19.2-12.8 35.2-35.2 35.2zM230.4 502.4v-406.4h-163.2v406.4h163.2zM988.8 707.2h-230.4c-19.2 0-35.2-16-35.2-35.2v-608c0-19.2 16-35.2 35.2-35.2h230.4c19.2 0 35.2 16 35.2 35.2v608c0 19.2-16 35.2-35.2 35.2zM953.6 636.8v-537.6h-163.2v537.6h163.2zM627.2 998.4h-230.4c-19.2 0-35.2-16-35.2-35.2v-899.2c0-19.2 16-35.2 35.2-35.2h230.4c19.2 0 35.2 16 35.2 35.2v899.2c0 19.2-16 35.2-35.2 35.2zM592 931.2v-832h-163.2v832h163.2z" />
<glyph unicode="&#x61;" glyph-name="arrow-down" d="M936 778l-424-424-424 424c-20 22-52 22-72 0-22-20-22-52 0-72l460-460c20-22 52-22 72 0l460 460c22 20 22 52 0 72-20 20-52 20-72 0z" />
<glyph unicode="&#x62;" glyph-name="calendar" d="M665.6 227.2c19.2 0 35.2 16 35.2 35.2s-16 35.2-35.2 35.2c-19.2 0-35.2-16-35.2-35.2s12.8-35.2 35.2-35.2zM665.6 336c19.2 0 35.2 16 35.2 38.4 0 19.2-16 35.2-35.2 35.2s-35.2-16-35.2-35.2c0-19.2 16-38.4 35.2-38.4zM492.8 336c19.2 0 35.2 16 35.2 38.4 0 19.2-16 35.2-35.2 35.2s-35.2-16-35.2-35.2c0-19.2 16-38.4 35.2-38.4zM492.8 448c19.2 0 35.2 16 35.2 35.2s-16 38.4-35.2 38.4-35.2-16-35.2-38.4c0-19.2 16-35.2 35.2-35.2zM492.8 227.2c19.2 0 35.2 16 35.2 35.2s-16 35.2-35.2 35.2c-19.2 0-35.2-16-35.2-35.2s16-35.2 35.2-35.2zM665.6 448c19.2 0 35.2 16 35.2 35.2s-16 38.4-35.2 38.4c-19.2 0-35.2-16-35.2-38.4 0-19.2 12.8-35.2 35.2-35.2zM841.6 448c19.2 0 35.2 16 35.2 35.2s-16 38.4-35.2 38.4c-19.2 0-35.2-16-35.2-38.4 0-19.2 16-35.2 35.2-35.2zM841.6 336c19.2 0 35.2 19.2 35.2 38.4s-19.2 35.2-35.2 35.2c-19.2 0-35.2-16-35.2-35.2s16-38.4 35.2-38.4zM841.6 227.2c19.2 0 35.2 16 35.2 35.2s-16 35.2-35.2 35.2c-19.2 0-35.2-16-35.2-35.2s16-35.2 35.2-35.2zM182.4 115.2c19.2 0 35.2 16 35.2 35.2s-16 35.2-35.2 35.2c-19.2 0-35.2-16-35.2-35.2s16-35.2 35.2-35.2zM182.4 227.2c19.2 0 35.2 16 35.2 35.2s-16 35.2-35.2 35.2c-19.2 0-35.2-16-35.2-35.2s16-35.2 35.2-35.2zM182.4 336c19.2 0 35.2 16 35.2 38.4 0 19.2-16 35.2-35.2 35.2s-35.2-19.2-35.2-35.2c0-19.2 16-38.4 35.2-38.4zM1024 848c0 54.4-44.8 102.4-99.2 102.4h-96v41.6c0 19.2-16 35.2-35.2 35.2s-35.2-16-35.2-35.2v-41.6h-489.6v41.6c0 19.2-16 35.2-35.2 35.2s-35.2-16-35.2-35.2v-41.6h-96c-54.4 0-99.2-44.8-99.2-102.4v-144c0 0 0-3.2 0-6.4s0-3.2 0-3.2v-592c0-54.4 44.8-99.2 99.2-99.2h825.6c54.4 0 99.2 44.8 99.2 99.2v592c0 0 0 3.2 0 3.2 0 3.2 0 3.2 0 6.4l-3.2 144zM70.4 656h880v-553.6c0-16-12.8-28.8-28.8-28.8h-825.6c-16 0-28.8 12.8-28.8 28.8v553.6zM230.4 796.8c19.2 0 35.2 16 35.2 35.2v41.6h489.6v-41.6c0-19.2 16-35.2 35.2-35.2s35.2 16 35.2 35.2v41.6h96c16 0 28.8-12.8 28.8-28.8v-118.4h-880v118.4c0 16 12.8 28.8 28.8 28.8h96v-41.6c0-19.2 16-35.2 35.2-35.2zM339.2 448c19.2 0 35.2 16 35.2 35.2s-16 38.4-35.2 38.4c-19.2 0-35.2-19.2-35.2-38.4s16-35.2 35.2-35.2zM339.2 336c19.2 0 35.2 16 35.2 38.4 0 19.2-16 35.2-35.2 35.2s-35.2-19.2-35.2-35.2c0-19.2 16-38.4 35.2-38.4zM492.8 115.2c19.2 0 35.2 16 35.2 35.2s-16 35.2-35.2 35.2c-19.2 0-35.2-16-35.2-35.2s16-35.2 35.2-35.2zM339.2 227.2c19.2 0 35.2 16 35.2 35.2s-16 35.2-35.2 35.2c-19.2 0-35.2-16-35.2-35.2s16-35.2 35.2-35.2zM339.2 115.2c19.2 0 35.2 16 35.2 35.2s-16 35.2-35.2 35.2c-19.2 0-35.2-16-35.2-35.2s16-35.2 35.2-35.2z" />
<glyph unicode="&#x64;" glyph-name="chat" d="M723.2 550.4h-422.4c-19.2 0-38.4-16-38.4-35.2s16-35.2 38.4-35.2h422.4c19.2 0 38.4 16 38.4 35.2s-19.2 35.2-38.4 35.2zM723.2 409.6h-422.4c-19.2 0-38.4-16-38.4-35.2s16-35.2 38.4-35.2h422.4c19.2 0 38.4 16 38.4 35.2 0 22.4-19.2 35.2-38.4 35.2zM886.4 860.8v0l-12.8 12.8c-96 96-224 150.4-361.6 150.4s-265.6-54.4-361.6-150.4c-185.6-185.6-201.6-476.8-38.4-681.6-19.2-41.6-44.8-70.4-73.6-83.2-22.4-12.8-35.2-35.2-28.8-57.6 3.2-22.4 19.2-41.6 44.8-44.8 9.6-3.2 22.4-3.2 38.4-3.2 64 0 128 19.2 182.4 54.4 76.8-38.4 156.8-57.6 236.8-57.6 137.6 0 265.6 54.4 361.6 150.4s150.4 224 150.4 361.6c0 131.2-48 256-137.6 348.8zM822.4 201.6v0 0 0c-83.2-80-195.2-128-310.4-128-76.8 0-153.6 19.2-220.8 60.8-6.4 6.4-12.8 6.4-19.2 6.4s-16-3.2-22.4-6.4c-51.2-38.4-99.2-51.2-131.2-54.4 25.6 25.6 48 60.8 70.4 105.6 6.4 16 6.4 28.8-6.4 41.6-153.6 172.8-144 438.4 19.2 601.6 80 83.2 188.8 128 310.4 128 118.4 0 230.4-44.8 310.4-128 83.2-83.2 128-195.2 128-313.6s-44.8-230.4-128-313.6v0zM723.2 688h-422.4c-19.2 0-38.4-16-38.4-35.2s16-35.2 38.4-35.2h422.4c19.2 0 38.4 16 38.4 35.2s-19.2 35.2-38.4 35.2z" />
<glyph unicode="&#x65;" glyph-name="clip" d="M944 902.4v0 0c-105.6 102.4-272 102.4-377.6 0l-508.8-508.8c-38.4-38.4-57.6-89.6-57.6-144s22.4-105.6 57.6-144c38.4-38.4 89.6-57.6 140.8-57.6 32 0 67.2 9.6 99.2 25.6 9.6 0 16 3.2 22.4 9.6l508.8 508.8c54.4 54.4 54.4 137.6 0 188.8-54.4 54.4-137.6 54.4-192 0l-416-416c-6.4-6.4-12.8-16-12.8-25.6s3.2-19.2 12.8-25.6c12.8-12.8 38.4-12.8 51.2 0l419.2 419.2c12.8 12.8 28.8 19.2 44.8 19.2 0 0 0 0 0 0 16 0 28.8-6.4 41.6-19.2 25.6-25.6 25.6-64 0-86.4l-486.4-486.4c-51.2-51.2-131.2-51.2-182.4 0-48 48-48 128 0 179.2l512 508.8c35.2 35.2 83.2 57.6 134.4 57.6 0 0 0 0 0 0 51.2 0 99.2-19.2 137.6-57.6 35.2-35.2 57.6-83.2 57.6-134.4s-19.2-102.4-57.6-137.6l-464-464c-12.8-12.8-12.8-38.4 0-51.2 6.4-6.4 19.2-12.8 28.8-12.8s19.2 3.2 22.4 12.8l464 464c51.2 48 76.8 115.2 80 185.6 0 73.6-28.8 140.8-80 192z" />
<glyph unicode="&#x66;" glyph-name="download" d="M825.6 736c-35.2 172.8-204.8 284.8-377.6 252.8-128-25.6-227.2-124.8-252.8-252.8-121.6-12.8-211.2-124.8-198.4-249.6 12.8-112 108.8-198.4 224-198.4h160c19.2 0 32 12.8 32 32s-12.8 32-32 32h-160c-89.6 0-160 73.6-160 160 0 89.6 73.6 160 160 160 16 0 28.8 12.8 32 28.8 16 140.8 144 240 284.8 224 118.4-12.8 211.2-105.6 224-224 3.2-16 16-28.8 35.2-28.8 89.6 0 160-70.4 160-160s-70.4-160-160-160h-160c-19.2 0-32-12.8-32-32s12.8-32 32-32h160c124.8 0 224 102.4 224 227.2 3.2 112-83.2 208-195.2 220.8zM627.2 224c0 0 0 0 0 0l-83.2-83.2v403.2c0 19.2-12.8 32-32 32s-32-12.8-32-32v-403.2l-80 80c-12.8 12.8-32 12.8-44.8 0s-12.8-32 0-44.8c0 0 0 0 0 0l134.4-134.4c3.2-3.2 6.4-6.4 9.6-6.4 6.4-3.2 16-3.2 25.6 0 3.2 3.2 6.4 3.2 9.6 6.4l134.4 134.4c12.8 12.8 12.8 32 0 44.8-9.6 16-28.8 16-41.6 3.2z" />
<glyph unicode="&#x67;" glyph-name="envelope" d="M892.8 905.6h-761.6c-73.6 0-131.2-60.8-131.2-131.2v-521.6c0-73.6 60.8-131.2 131.2-131.2h761.6c73.6 0 131.2 60.8 131.2 131.2v521.6c0 73.6-57.6 131.2-131.2 131.2zM73.6 774.4c0 32 25.6 57.6 57.6 57.6h761.6c32 0 57.6-25.6 57.6-57.6v-528c-3.2-28.8-28.8-51.2-60.8-51.2h-761.6c-32 0-57.6 25.6-57.6 57.6v521.6zM371.2 518.4l-243.2-227.2c-12.8-12.8-16-35.2 0-51.2 6.4-6.4 12.8-12.8 25.6-12.8 9.6 0 19.2 6.4 25.6 9.6l246.4 230.4 64-57.6c6.4-3.2 12.8-9.6 22.4-9.6s19.2 6.4 25.6 9.6l64 57.6 246.4-233.6c6.4-6.4 16-9.6 25.6-9.6 12.8 0 19.2 6.4 25.6 12.8 9.6 9.6 12.8 35.2 0 51.2l-243.2 227.2 240 217.6c16 12.8 16 35.2 3.2 51.2s-35.2 16-51.2 3.2l-336-297.6-60.8 57.6c0 0-3.2 3.2-6.4 3.2l-268.8 240c-6.4 6.4-19.2 9.6-28.8 9.6s-16-6.4-22.4-12.8c-6.4-6.4-9.6-16-9.6-25.6s6.4-19.2 12.8-25.6l243.2-217.6z" />
<glyph unicode="&#x68;" glyph-name="marker" d="M512 825.6c-121.6 0-220.8-99.2-220.8-220.8s99.2-220.8 220.8-220.8c121.6 0 220.8 99.2 220.8 220.8s-99.2 220.8-220.8 220.8zM512 454.4c-83.2 0-150.4 67.2-150.4 150.4s67.2 147.2 150.4 147.2c83.2 0 147.2-67.2 147.2-147.2 0-83.2-64-150.4-147.2-150.4zM512 1024h-12.8c-208-6.4-380.8-169.6-400-374.4-3.2-41.6-3.2-80 6.4-115.2 0 0 0-3.2 3.2-16 6.4-25.6 12.8-51.2 28.8-80 41.6-99.2 131.2-249.6 332.8-419.2 9.6-9.6 25.6-16 44.8-16s32 6.4 44.8 16c201.6 166.4 294.4 320 332.8 416 12.8 28.8 22.4 57.6 28.8 83.2 0 3.2 0 3.2 0 6.4v0c0 3.2 0 3.2 0 6.4 6.4 22.4 9.6 48 9.6 80-3.2 227.2-188.8 412.8-419.2 412.8zM857.6 611.2c0-22.4-3.2-44.8-6.4-67.2 0-3.2-3.2-6.4-3.2-9.6-6.4-25.6-16-48-25.6-70.4-38.4-92.8-124.8-236.8-310.4-390.4-147.2 121.6-252.8 252.8-313.6 390.4-9.6 22.4-16 44.8-22.4 67.2 0 6.4 0 9.6-3.2 12.8v3.2c-6.4 35.2-6.4 67.2-3.2 99.2 16 169.6 156.8 304 329.6 310.4 3.2 0 9.6 0 12.8 0 89.6 0 172.8-35.2 236.8-96 70.4-67.2 108.8-156.8 108.8-249.6z" />
<glyph unicode="&#x69;" glyph-name="message" d="M268.8 652.8h483.2v-73.6h-483.2v73.6zM268.8 528h483.2v-73.6h-483.2v73.6zM268.8 777.6h483.2v-73.6h-483.2v73.6zM876.8 988.8h-732.8c-83.2 0-147.2-64-147.2-147.2v-448c0-76.8 60.8-140.8 137.6-144v-208l300.8 208h438.4c80 0 147.2 67.2 147.2 147.2v448c3.2 76.8-60.8 144-144 144zM211.2 176v144h-67.2c-41.6 0-73.6 32-73.6 73.6v448c0 41.6 32 73.6 73.6 73.6h732.8c41.6 0 73.6-32 73.6-73.6v-448c0-41.6-32-73.6-73.6-73.6h-460.8l-204.8-144z" />
<glyph unicode="&#x6a;" glyph-name="desktop" d="M892.8 976h-761.6c-73.6 0-131.2-57.6-131.2-131.2v-483.2c0-73.6 57.6-131.2 131.2-131.2h345.6v-102.4h-166.4c-19.2 0-38.4-16-38.4-38.4 0-19.2 16-35.2 38.4-35.2h406.4c19.2 0 38.4 16 38.4 35.2s-16 38.4-38.4 38.4h-166.4v102.4h345.6c73.6 0 131.2 57.6 131.2 131.2v480c-3.2 73.6-60.8 134.4-134.4 134.4zM950.4 361.6c0-32-25.6-57.6-57.6-57.6h-761.6c-32 0-57.6 25.6-57.6 57.6v16h876.8v-16zM950.4 448h-876.8v393.6c0 32 25.6 57.6 57.6 57.6h761.6c32 0 57.6-25.6 57.6-57.6v-393.6z" />
<glyph unicode="&#x6b;" glyph-name="plane" d="M1014.4 1014.4v0c-12.8 9.6-28.8 12.8-41.6 9.6l-950.4-416c-12.8-6.4-22.4-19.2-22.4-32s6.4-25.6 19.2-32l329.6-188.8 195.2-332.8c6.4-9.6 19.2-19.2 32-19.2h3.2c12.8 0 22.4 6.4 32 22.4l412.8 950.4c3.2 12.8 0 25.6-9.6 38.4zM822.4 876.8l-451.2-448-249.6 140.8 700.8 307.2zM876.8 828.8l-307.2-707.2-147.2 256 454.4 451.2z" />
<glyph unicode="&#x6c;" glyph-name="phone" d="M550.4 771.2c51.2-9.6 102.4-35.2 144-73.6 38.4-38.4 67.2-89.6 73.6-144 3.2-16 16-28.8 35.2-28.8h6.4c9.6 0 16 6.4 22.4 12.8s9.6 19.2 6.4 28.8c-12.8 70.4-44.8 131.2-96 182.4s-115.2 83.2-182.4 92.8c-9.6 0-19.2 0-25.6-6.4s-12.8-12.8-12.8-22.4c-3.2-9.6 0-19.2 3.2-28.8 6.4-6.4 16-12.8 25.6-12.8zM812.8 396.8c-44.8 44.8-112 44.8-156.8 0l-64-64c0 0-3.2 0-3.2 0-3.2 0-6.4 3.2-9.6 3.2-6.4 3.2-16 6.4-19.2 12.8-60.8 38.4-121.6 92.8-172.8 156.8-25.6 32-41.6 57.6-54.4 83.2 16 12.8 32 28.8 44.8 44.8 3.2 3.2 3.2 3.2 6.4 6.4s6.4 9.6 12.8 12.8c48 48 48 108.8 0 156.8l-76.8 76.8c-12.8 12.8-28.8 28.8-41.6 38.4-22.4 22.4-48 35.2-76.8 35.2s-54.4-12.8-76.8-35.2l-73.6-73.6c-28.8-28.8-44.8-64-48-102.4-3.2-51.2 6.4-102.4 28.8-160 35.2-96 86.4-182.4 163.2-275.2 92.8-112 204.8-198.4 332.8-262.4 67.2-32 131.2-51.2 192-54.4h12.8c51.2 0 96 19.2 128 54.4l3.2 6.4c6.4 6.4 12.8 16 22.4 22.4 3.2 3.2 9.6 9.6 12.8 12.8l28.8 28.8c22.4 22.4 35.2 51.2 32 80 0 28.8-12.8 54.4-35.2 76.8l-112 118.4zM99.2 620.8c-19.2 51.2-25.6 89.6-25.6 128 3.2 25.6 12.8 41.6 28.8 57.6l73.6 73.6c16 16 38.4 16 54.4 0 12.8-12.8 25.6-25.6 38.4-41.6 3.2-3.2 6.4-6.4 9.6-9.6s6.4-6.4 9.6-9.6l57.6-57.6c9.6-9.6 16-19.2 16-25.6s-6.4-19.2-16-28.8l-19.2-19.2c-16-19.2-32-35.2-51.2-51.2-3.2 0-6.4-3.2-6.4-6.4-12.8-16-16-32-9.6-51.2v-3.2c16-35.2 35.2-67.2 70.4-115.2 60.8-73.6 121.6-131.2 192-172.8 6.4-6.4 51.2-28.8 51.2-28.8 6.4-3.2 16-3.2 22.4-3.2 19.2 0 32 12.8 38.4 16l73.6 73.6c9.6 9.6 19.2 16 28.8 16s19.2-6.4 25.6-16l118.4-118.4c19.2-19.2 19.2-35.2 0-57.6-3.2-3.2-6.4-6.4-6.4-6.4-6.4-6.4-12.8-12.8-19.2-19.2l-41.6-41.6c-19.2-22.4-41.6-32-73.6-32h-9.6c-60.8 3.2-118.4 28.8-163.2 51.2-118.4 54.4-224 137.6-313.6 243.2v0c-76.8 92.8-124.8 172.8-153.6 256zM1020.8 572.8c-19.2 112-70.4 214.4-153.6 297.6-76.8 80-179.2 134.4-294.4 153.6-19.2 3.2-38.4-12.8-41.6-32 0-9.6 0-19.2 6.4-25.6s12.8-12.8 22.4-12.8c99.2-16 185.6-60.8 259.2-134.4 70.4-70.4 115.2-160 134.4-259.2 3.2-16 19.2-32 35.2-32h6.4c9.6 0 19.2 6.4 25.6 16 3.2 12.8 3.2 22.4 0 28.8z" />
<glyph unicode="&#x6d;" glyph-name="settings" d="M966.4 627.2l-9.6 3.2-57.6 9.6c-6.4 22.4-16 41.6-25.6 60.8l41.6 54.4c19.2 28.8 16 67.2-9.6 89.6l-64 64c-12.8 12.8-28.8 19.2-48 19.2-16 0-28.8-3.2-38.4-12.8l-54.4-38.4c-22.4 9.6-41.6 19.2-64 25.6l-9.6 67.2c-6.4 32-35.2 57.6-67.2 57.6h-89.6c-35.2 0-64-22.4-70.4-57.6l-9.6-67.2c-19.2-6.4-41.6-12.8-60.8-25.6l-54.4 38.4c-9.6 9.6-25.6 12.8-41.6 12.8-19.2 0-35.2-6.4-51.2-22.4l-64-64c-25.6-22.4-28.8-60.8-6.4-89.6l38.4-54.4c-9.6-19.2-16-38.4-25.6-60.8l-67.2-9.6c-35.2-6.4-57.6-35.2-57.6-70.4v-89.6c0-32 25.6-60.8 57.6-70.4l67.2-9.6c6.4-19.2 12.8-41.6 25.6-60.8l-38.4-54.4c-19.2-28.8-16-67.2 9.6-89.6l64-64c12.8-12.8 28.8-19.2 48-19.2 16 0 28.8 3.2 38.4 12.8l54.4 38.4c19.2-9.6 41.6-16 57.6-25.6l9.6-67.2c6.4-32 35.2-57.6 67.2-57.6h89.6c32 0 60.8 25.6 70.4 57.6l9.6 67.2c22.4 6.4 41.6 16 60.8 25.6l54.4-38.4c12.8-9.6 25.6-12.8 41.6-12.8 19.2 0 35.2 6.4 48 19.2l64 64c25.6 25.6 25.6 60.8 6.4 89.6l-38.4 54.4c9.6 19.2 19.2 38.4 25.6 60.8l67.2 9.6c32 6.4 57.6 35.2 57.6 67.2v89.6c6.4 38.4-19.2 67.2-51.2 73.6zM838.4 432c-9.6-35.2-22.4-60.8-35.2-86.4-6.4-12.8-6.4-28.8 3.2-41.6l51.2-73.6-60.8-60.8-73.6 48c-12.8 9.6-25.6 9.6-41.6 3.2-25.6-12.8-54.4-25.6-86.4-35.2-12.8-3.2-22.4-12.8-25.6-28.8l-16-86.4h-83.2l-16 86.4c-3.2 16-12.8 25.6-25.6 28.8-28.8 6.4-57.6 22.4-83.2 35.2-6.4 6.4-12.8 6.4-19.2 6.4s-12.8 0-22.4-6.4l-70.4-51.2-60.8 60.8 51.2 70.4c9.6 12.8 9.6 28.8 3.2 41.6-16 32-28.8 57.6-35.2 83.2-3.2 16-12.8 25.6-28.8 28.8l-86.4 16v83.2l86.4 16c16 3.2 25.6 12.8 28.8 25.6 6.4 25.6 19.2 54.4 35.2 86.4 6.4 12.8 6.4 25.6-3.2 41.6l-51.2 70.4 60.8 60.8 70.4-51.2c12.8-9.6 28.8-9.6 38.4-3.2 25.6 16 54.4 28.8 86.4 35.2 12.8 6.4 22.4 16 25.6 28.8l16 86.4h86.4c0 0 0 0 0 0l12.8-86.4c3.2-12.8 12.8-25.6 28.8-28.8 32-9.6 64-22.4 89.6-35.2 12.8-6.4 28.8-6.4 38.4 0l70.4 51.2 60.8-60.8-51.2-70.4c-9.6-12.8-9.6-25.6-3.2-41.6 19.2-32 28.8-60.8 35.2-86.4 3.2-12.8 16-22.4 28.8-25.6l86.4-16v-83.2l-86.4-16c-16 3.2-28.8-6.4-28.8-19.2zM512 739.2c-124.8 0-224-102.4-224-227.2s99.2-224 224-224c124.8 0 227.2 99.2 227.2 224 0 128-102.4 227.2-227.2 227.2zM512 361.6c-83.2 0-153.6 70.4-153.6 153.6s70.4 153.6 153.6 153.6c83.2 0 153.6-70.4 153.6-153.6 0-86.4-70.4-153.6-153.6-153.6z" />
<glyph unicode="&#x6e;" glyph-name="user" d="M950.4 227.2c-3.2 41.6-6.4 140.8-99.2 172.8h-3.2c-92.8 25.6-169.6 76.8-169.6 76.8-9.6 6.4-19.2 9.6-28.8 6.4s-16-6.4-22.4-12.8c-12.8-16-9.6-35.2 9.6-51.2 0 0 0 0 3.2-3.2 80-51.2 147.2-73.6 188.8-86.4 41.6-16 48-57.6 51.2-112v-3.2c0-19.2 0-44.8-3.2-60.8-25.6-12.8-156.8-83.2-361.6-83.2s-336 67.2-361.6 83.2c-3.2 16-3.2 41.6-3.2 60.8v6.4c3.2 51.2 6.4 92.8 48 108.8 41.6 9.6 112 35.2 188.8 86.4 3.2 0 3.2 3.2 3.2 3.2 16 12.8 19.2 35.2 6.4 51.2-9.6 16-32 19.2-51.2 9.6l-3.2-3.2c-12.8-9.6-80-54.4-166.4-76.8h-3.2c-92.8-32-99.2-131.2-99.2-172.8v-9.6c0-25.6 3.2-70.4 12.8-99.2 0-3.2 6.4-12.8 12.8-16 0 0 156.8-102.4 412.8-102.4 249.6 0 396.8 92.8 412.8 102.4 9.6 3.2 12.8 9.6 16 16 9.6 25.6 9.6 70.4 9.6 96v12.8zM508.8 467.2h6.4c64 3.2 115.2 25.6 150.4 67.2 35.2 38.4 73.6 115.2 70.4 262.4 0 3.2 0 6.4 0 6.4-6.4 112-60.8 169.6-105.6 195.2-35.2 19.2-73.6 32-115.2 32h-3.2c-19.2 0-70.4-3.2-115.2-32-38.4-19.2-99.2-73.6-105.6-195.2 0-3.2-19.2-169.6 70.4-268.8 32-44.8 83.2-67.2 147.2-67.2zM358.4 784v0 9.6c6.4 137.6 96 156.8 150.4 156.8h3.2c54.4 0 147.2-19.2 150.4-156.8v-3.2c3.2-22.4 9.6-147.2-48-211.2-22.4-28.8-57.6-41.6-102.4-41.6h-3.2c-44.8 0-76.8 12.8-99.2 41.6-57.6 64-54.4 179.2-51.2 204.8z" />
<glyph unicode="&#x6f;" glyph-name="search" d="M990 92l-236 236c58 70 94 162 94 260 0 228-184 414-412 414-230 0-414-186-414-414s184-412 414-412c98 0 190 34 260 94l236-236c16-16 42-16 58 0s16 42 0 58zM436 258c-184 0-332 148-332 330 0 184 148 332 332 332 182 0 330-148 330-332 0-182-148-330-330-330z" />
<glyph unicode="&#x70;" glyph-name="close" d="M602 512l404 402c24 26 24 66 0 92-26 24-66 24-92 0l-402-404-402 404c-26 24-66 24-92 0-24-26-24-66 0-92l404-402-404-402c-24-26-24-66 0-92 14-12 30-18 46-18s32 6 46 18l402 404 402-404c14-12 30-18 46-18s32 6 46 18c24 26 24 66 0 92z" />
<glyph unicode="&#x71;" glyph-name="message-add" d="M534.4 528c0-22.4 19.2-41.6 41.6-41.6 19.2 0 38.4 19.2 38.4 41.6 0 19.2-19.2 38.4-38.4 38.4-22.4 0-41.6-19.2-41.6-38.4zM598.4 211.2c-9.6 3.2-19.2 6.4-28.8 3.2-35.2-9.6-73.6-16-118.4-16-76.8 0-150.4 19.2-208 54.4-12.8 6.4-25.6 6.4-35.2-3.2-22.4-12.8-48-22.4-76.8-25.6 12.8 16 25.6 38.4 35.2 60.8 3.2 9.6 0 25.6-9.6 35.2-54.4 57.6-83.2 128-83.2 208 0 182.4 169.6 329.6 380.8 329.6 195.2 0 358.4-124.8 380.8-294.4 3.2-19.2 19.2-32 38.4-32 19.2 3.2 32 19.2 32 38.4-25.6 204.8-220.8 358.4-451.2 358.4-249.6 0-451.2-179.2-451.2-400 0-83.2 32-169.6 86.4-236.8-9.6-19.2-25.6-38.4-44.8-48-16-9.6-22.4-28.8-19.2-51.2 6.4-19.2 22.4-32 41.6-35.2 60.8-6.4 118.4 0 163.2 25.6 70.4-35.2 147.2-54.4 227.2-54.4 48 0 96 6.4 140.8 19.2 9.6 3.2 16 9.6 22.4 16 3.2 9.6 6.4 19.2 3.2 28.8-9.6 6.4-16 12.8-25.6 19.2zM412.8 528c0-22.4 16-41.6 38.4-41.6s38.4 19.2 38.4 41.6c0 19.2-16 38.4-38.4 38.4s-38.4-19.2-38.4-38.4zM816 518.4c-118.4 0-208-92.8-208-208s92.8-208 208-208c115.2 0 208 92.8 208 208s-92.8 208-208 208zM816 166.4c-80 0-144 64-144 140.8s64 144 144 144c76.8 0 140.8-64 140.8-144 0-76.8-64-140.8-140.8-140.8zM294.4 528c0-22.4 16-41.6 38.4-41.6s38.4 19.2 38.4 41.6c0 19.2-16 38.4-38.4 38.4s-38.4-19.2-38.4-38.4zM876.8 342.4h-28.8v28.8c0 19.2-16 35.2-35.2 35.2s-35.2-16-35.2-35.2v-28.8h-28.8c-19.2 0-35.2-16-35.2-35.2s16-35.2 35.2-35.2h28.8v-28.8c0-19.2 16-35.2 35.2-35.2s35.2 16 35.2 35.2v28.8h28.8c19.2 0 35.2 16 35.2 35.2s-16 35.2-35.2 35.2z" />
<glyph unicode="&#x72;" glyph-name="emoji" d="M345.6 563.2c35.2 0 64 28.8 64 64s-28.8 64-64 64c-32 0-60.8-28.8-60.8-64s28.8-64 60.8-64zM684.8 563.2c35.2 0 60.8 28.8 60.8 64s-28.8 64-60.8 64c-35.2 0-64-28.8-64-64s28.8-64 64-64zM723.2 412.8c-51.2-80-147.2-124.8-240-112-73.6 6.4-140.8 48-182.4 112l-3.2 6.4-60.8-38.4 3.2-6.4c51.2-80 137.6-134.4 233.6-144 6.4 0 12.8 0 16 0 6.4 0 12.8 0 19.2 0 105.6 0 211.2 57.6 272 147.2l3.2 6.4-57.6 38.4-3.2-9.6zM512 1024c-281.6 0-512-230.4-512-512s230.4-512 512-512c281.6 0 512 230.4 512 512 0 284.8-230.4 512-512 512zM512 73.6c-118.4 0-230.4 44.8-310.4 128-35.2 38.4-60.8 70.4-80 108.8-32 64-51.2 131.2-51.2 204.8 0 243.2 198.4 441.6 441.6 441.6 112 0 217.6-41.6 300.8-115.2 41.6-38.4 73.6-83.2 99.2-134.4 28.8-57.6 41.6-124.8 41.6-188.8 0-249.6-198.4-444.8-441.6-444.8z" />
<glyph unicode="&#x73;" glyph-name="menu" d="M640 512c0-70-58-128-128-128s-128 58-128 128c0 70 58 128 128 128s128-58 128-128zM640 128c0-70-58-128-128-128s-128 58-128 128c0 70 58 128 128 128s128-58 128-128zM640 896c0-70-58-128-128-128s-128 58-128 128c0 70 58 128 128 128s128-58 128-128z" />
<glyph unicode="&#x74;" glyph-name="arrow-left" d="M246 476l460-460c20-22 52-22 72 0 20 20 20 52 0 72l-424 424 424 424c20 20 20 52 0 72-20 22-52 22-72 0l-460-460c-20-20-20-52 0-72z" />
<glyph unicode="&#x75;" glyph-name="arrow-right" d="M778 548l-460 460c-20 22-52 22-72 0-20-20-20-52 0-72l424-424-424-424c-20-20-20-52 0-72 20-22 52-22 72 0l460 460c20 20 20 52 0 72z" />
<glyph unicode="&#x76;" glyph-name="loader" d="M900 510c0 210-172 382-382 382-212 0-384-172-384-382h84c0 164 134 298 300 298 164 0 298-134 298-298z" />
<glyph unicode="&#x77;" glyph-name="check" d="M1010 874c-20 20-54 20-74 0l-612-614-236 236c-20 20-54 20-74 0s-20-54 0-74l272-272c20-20 54-18 74 0l650 650c20 20 20 54 0 74z" />
<glyph unicode="&#x78;" glyph-name="delete" d="M694.4 188.8c19.2 0 35.2 16 35.2 35.2v432c0 19.2-16 35.2-35.2 35.2s-35.2-16-35.2-35.2v-432c0-19.2 16-35.2 35.2-35.2zM931.2 880h-201.6v28.8c0 64-54.4 118.4-118.4 118.4h-201.6c-64 0-118.4-54.4-118.4-118.4v-28.8h-201.6c-19.2 0-38.4-16-38.4-35.2s16-35.2 38.4-35.2h41.6v-649.6c0-86.4 70.4-156.8 156.8-156.8h441.6c86.4 0 156.8 70.4 156.8 156.8v649.6h41.6c19.2 0 38.4 16 38.4 35.2 3.2 19.2-12.8 35.2-35.2 35.2zM412.8 953.6h201.6c25.6 0 48-22.4 48-48v-28.8h-294.4v28.8c-3.2 25.6 19.2 48 44.8 48zM816 809.6v-652.8c-3.2-44.8-38.4-83.2-83.2-83.2h-441.6c-48 0-83.2 38.4-83.2 86.4v649.6h608zM512 156.8c19.2 0 35.2 16 35.2 38.4v492.8c0 19.2-16 35.2-35.2 35.2s-35.2-16-35.2-35.2v-492.8c0-22.4 16-38.4 35.2-38.4zM329.6 188.8c19.2 0 35.2 16 35.2 35.2v432c0 19.2-16 35.2-35.2 35.2s-35.2-16-35.2-35.2v-432c0-19.2 12.8-35.2 35.2-35.2z" />
<glyph unicode="&#x79;" glyph-name="padlock" d="M848 569.6h-41.6v163.2c0 160-131.2 291.2-291.2 291.2s-291.2-131.2-291.2-291.2v-163.2h-41.6c-44.8 0-83.2-38.4-83.2-86.4v-400c0-44.8 38.4-83.2 83.2-83.2h668.8c44.8 0 83.2 38.4 83.2 83.2v400c-3.2 48-41.6 86.4-86.4 86.4zM291.2 732.8c0 121.6 99.2 220.8 220.8 220.8s220.8-99.2 220.8-220.8v-163.2h-444.8l3.2 163.2zM857.6 483.2v-400c0-6.4-6.4-9.6-9.6-9.6h-668.8c-6.4 0-9.6 6.4-9.6 9.6v400c0 6.4 3.2 12.8 9.6 12.8h668.8c3.2 0 9.6-3.2 9.6-12.8zM512 400c-60.8 0-112-51.2-112-112 0-64 51.2-115.2 112-115.2s112 51.2 112 115.2c0 60.8-51.2 112-112 112zM512 243.2c-22.4 0-41.6 19.2-41.6 38.4 0 22.4 19.2 41.6 41.6 41.6s41.6-19.2 41.6-41.6c0-19.2-19.2-38.4-41.6-38.4z" />
<glyph unicode="&#x7a;" glyph-name="shuffle" d="M438.4 444.8c-16 9.6-38.4 6.4-51.2-9.6l-32-48c-51.2-86.4-131.2-137.6-208-137.6h-112c-19.2 0-35.2-16-35.2-35.2s16-35.2 35.2-35.2h112c105.6 0 201.6 60.8 268.8 169.6l32 48c12.8 12.8 6.4 35.2-9.6 48zM534.4 601.6c6.4-6.4 16-6.4 19.2-6.4 9.6 0 25.6 6.4 32 16l19.2 28.8c51.2 86.4 128 134.4 208 134.4h89.6l-60.8-60.8c-6.4-6.4-9.6-16-9.6-25.6s3.2-19.2 9.6-25.6c6.4-6.4 16-9.6 25.6-9.6s19.2 6.4 25.6 9.6l121.6 121.6c6.4 6.4 9.6 16 9.6 25.6s-3.2 19.2-9.6 25.6l-121.6 121.6c-6.4 6.4-16 9.6-25.6 9.6 0 0 0 0 0 0-9.6 0-19.2-3.2-25.6-9.6-12.8-12.8-12.8-38.4 0-51.2l60.8-60.8h-89.6c-105.6 0-201.6-60.8-268.8-169.6l-19.2-32c-6.4-9.6-6.4-19.2-3.2-28.8 0 0 3.2-6.4 12.8-12.8zM892.8 358.4c-12.8 12.8-38.4 12.8-51.2 0s-12.8-35.2 0-51.2l60.8-60.8h-86.4c-80 0-153.6 48-211.2 137.6l-185.6 297.6c-67.2 108.8-166.4 169.6-268.8 169.6h-115.2c-19.2 0-35.2-16-35.2-35.2s16-35.2 35.2-35.2h115.2c80 0 156.8-48 208-134.4l185.6-297.6c67.2-108.8 163.2-169.6 268.8-169.6h86.4l-57.6-60.8c-6.4-6.4-9.6-12.8-12.8-22.4 0-9.6 3.2-19.2 9.6-25.6s16-12.8 25.6-12.8c12.8 0 22.4 3.2 25.6 9.6l121.6 121.6c6.4 6.4 9.6 16 9.6 25.6s-3.2 19.2-9.6 25.6l-118.4 118.4z" />
<glyph unicode="&#xe915;" glyph-name="automation" d="M1011.2 988.8c-22.4 32-64 44.8-99.2 28.8l-636.8-262.4c-32-12.8-51.2-44.8-51.2-76.8 0-35.2 22.4-64 54.4-73.6l243.2-83.2 83.2-243.2c12.8-32 41.6-54.4 76.8-54.4 32 0 60.8 19.2 73.6 51.2l262.4 636.8c9.6 25.6 6.4 54.4-6.4 76.8zM672 304l-89.6 259.2c-3.2 9.6-12.8 19.2-22.4 22.4l-259.2 89.6c-3.2 0-6.4 3.2-6.4 9.6s3.2 9.6 6.4 9.6l636.8 262.4c0 0 3.2 0 3.2 0 3.2 0 6.4-3.2 6.4-3.2 3.2-3.2 3.2-6.4 0-9.6l-262.4-636.8c0 0-3.2-6.4-9.6-6.4 3.2-3.2-3.2-3.2-3.2 3.2zM441.6 406.4c0 9.6-3.2 19.2-9.6 25.6s-16 9.6-25.6 9.6c0 0 0 0 0 0-9.6 0-19.2-3.2-25.6-9.6l-352-352c-6.4-6.4-9.6-16-9.6-25.6s3.2-19.2 9.6-25.6c6.4-6.4 16-9.6 25.6-9.6s19.2 3.2 25.6 9.6l352 352c6.4 6.4 9.6 16 9.6 25.6zM60.8 304l128 128c6.4 6.4 9.6 16 9.6 25.6s-3.2 19.2-9.6 25.6c-6.4 6.4-16 9.6-25.6 9.6 0 0 0 0 0 0-9.6 0-19.2-3.2-25.6-9.6l-128-128c-6.4-6.4-9.6-16-9.6-25.6s3.2-19.2 9.6-25.6c6.4-6.4 16-9.6 25.6-9.6 9.6-3.2 19.2 0 25.6 9.6zM454.4 201.6c0 0 0 0 0 0-9.6 0-19.2-3.2-25.6-9.6l-128-128c-6.4-6.4-9.6-16-9.6-25.6s3.2-19.2 9.6-25.6c6.4-6.4 16-9.6 25.6-9.6s19.2 3.2 25.6 9.6l128 128c6.4 6.4 9.6 16 9.6 25.6s-3.2 19.2-9.6 25.6c-6.4 6.4-16 9.6-25.6 9.6z" />
<glyph unicode="&#xe91c;" glyph-name="sms" d="M876.8 988.8h-732.8c-83.2 0-147.2-64-147.2-147.2v-448c0-76.8 60.8-140.8 137.6-144v-208l300.8 208h438.4c80 0 147.2 67.2 147.2 147.2v448c3.2 76.8-60.8 144-144 144zM211.2 176v144h-67.2c-41.6 0-73.6 32-73.6 73.6v448c0 41.6 32 73.6 73.6 73.6h732.8c41.6 0 73.6-32 73.6-73.6v-448c0-41.6-32-73.6-73.6-73.6h-460.8l-204.8-144zM336 646.4c-16 9.6-38.4 16-60.8 16-32 3.2-35.2 9.6-35.2 16 0 9.6 12.8 16 32 16s35.2-9.6 38.4-16l3.2-6.4 44.8 22.4-3.2 9.6c-16 28.8-44.8 44.8-86.4 44.8s-86.4-22.4-86.4-67.2c0-51.2 44.8-64 86.4-70.4 25.6-3.2 38.4-9.6 38.4-19.2 0-19.2-28.8-19.2-35.2-19.2-22.4 0-41.6 9.6-48 25.6l-3.2 9.6-48-25.6 3.2-9.6c16-35.2 44.8-54.4 92.8-54.4h3.2c25.6 0 48 6.4 64 16 19.2 12.8 28.8 32 28.8 57.6 0 22.4-9.6 41.6-28.8 54.4zM515.2 662.4l-57.6 76.8h-57.6v-217.6h57.6v124.8l48-67.2h16l51.2 67.2v-124.8h57.6v217.6h-57.6zM819.2 646.4c-16 9.6-38.4 16-60.8 16-32 3.2-35.2 9.6-35.2 16 0 9.6 12.8 16 32 16s35.2-9.6 38.4-16l3.2-6.4 44.8 25.6-3.2 9.6c-16 28.8-44.8 44.8-86.4 44.8s-86.4-22.4-86.4-67.2c0-51.2 44.8-64 86.4-70.4 25.6-3.2 38.4-9.6 38.4-19.2 0-19.2-28.8-19.2-35.2-19.2-22.4 0-41.6 9.6-48 25.6l-3.2 9.6-48-25.6 3.2-9.6c16-35.2 44.8-54.4 89.6-54.4v0h6.4c25.6 0 48 6.4 64 16 19.2 12.8 28.8 32 28.8 57.6 0 19.2-9.6 38.4-28.8 51.2z" />
</font>
</defs>
</svg>
