<?xml version="1.0" encoding="utf-8"?>
<!-- Generator: Adobe Illustrator 19.2.1, SVG Export Plug-In . SVG Version: 6.00 Build 0)  -->
<svg version="1.1" id="Layer_1" xmlns="http://www.w3.org/2000/svg" xmlns:xlink="http://www.w3.org/1999/xlink" x="0px" y="0px"
	 viewBox="0 0 600 600" style="enable-background:new 0 0 600 600;" xml:space="preserve">
<style type="text/css">
	.st0{fill:#E62E04;}
	.st1{fill:#F8B55B;}
	.st2{fill:#FFFFFF;}
</style>
<title>perfex</title>
<g id="Layer_2">
	<g id="Layer_1-2">
		<path class="st0" d="M533.3,583.4c0.7,8.2-5.4,15.3-13.6,16c-0.4,0-0.8,0-1.2,0h-437c-8.1,0.1-14.8-6.5-14.9-14.6
			c0-0.5,0-1,0.1-1.4l34.5-427.8c0.6-7.7,7-13.6,14.8-13.6h367.9c7.7,0,14.2,5.9,14.8,13.6L533.3,583.4z"/>
		<path class="st1" d="M418.7,171.2h-24.2v-51.1c-4.7-52.2-50.9-90.7-103.1-85.9c-45.6,4.1-81.8,40.3-85.9,85.9v51.1h-24.2v-51.1
			C181.3,54.6,234.5,1.5,300,1.5c65.5,0,118.7,53.1,118.7,118.7V171.2z"/>
		<path class="st2" d="M193.4,141.6c-17.4,0-31.5,14.1-31.5,31.5s14.1,31.5,31.5,31.5c17.4,0,31.5-14.1,31.5-31.5c0,0,0-0.1,0-0.1
			C224.9,155.7,210.8,141.6,193.4,141.6C193.4,141.6,193.4,141.6,193.4,141.6z"/>
		<path class="st2" d="M406.6,141.6c-17.4,0-31.5,14.1-31.5,31.5s14.1,31.5,31.5,31.5c17.4,0,31.5-14.1,31.5-31.5c0,0,0-0.1,0-0.1
			C438.1,155.7,424.1,141.6,406.6,141.6C406.7,141.6,406.7,141.6,406.6,141.6z"/>
		<path class="st2" d="M397.7,457.4l-40.8-40.8l29.1-16.7c2.3-1.3,3.6-3.8,3.5-6.5c-0.3-2.6-1.9-4.8-4.3-5.9l-129.4-51.8
			c-3.6-1.2-7.4,0.7-8.6,4.3c-0.5,1.4-0.5,2.9,0,4.3l51.8,129.4c1,2.4,3.3,4.1,5.9,4.3c2.6,0.2,5.2-1.1,6.5-3.5l16.7-29.1l40.8,40.8
			c2.7,2.6,7,2.6,9.7,0l19.3-19.1c2.7-2.6,2.9-6.9,0.3-9.6C397.9,457.6,397.8,457.5,397.7,457.4z M372.9,472.4l-42.2-42.2
			c-1.3-1.3-3.1-2-4.9-2h-0.9c-2.1,0.3-3.9,1.5-5,3.4l-14.2,24.6l-40.5-101.7L366.9,395l-24.6,14.2c-3.3,1.9-4.4,6-2.5,9.3
			c0.3,0.5,0.7,1,1.1,1.5l42.2,42.2L372.9,472.4z"/>
		<path class="st2" d="M224.9,304.5c-2.6-2.8-6.9-3-9.7-0.5c-2.8,2.6-3,6.9-0.5,9.7c0.2,0.2,0.3,0.3,0.5,0.5l15.4,15
			c2.7,2.6,7,2.6,9.7,0c2.7-2.7,2.7-7,0-9.6c0,0,0,0,0,0L224.9,304.5z"/>
		<path class="st2" d="M230.1,351.9c0-3.8-3.1-6.8-6.8-6.8c0,0-0.1,0-0.1,0h-21.5c-3.8,0-6.9,3-6.9,6.7c0,0,0,0.1,0,0.1
			c0,3.8,3.1,6.9,6.9,6.9h21.5C227,358.8,230.1,355.7,230.1,351.9L230.1,351.9z"/>
		<path class="st2" d="M227.3,373l-15.2,15.3c-2.7,2.7-2.7,7,0,9.6c0,0,0,0,0,0c2.6,2.8,6.9,3.1,9.7,0.5c0.1-0.1,0.1-0.1,0.2-0.2
			l15.3-15.3c2.7-2.7,2.7-7,0-9.6c0,0,0,0,0,0c-2.5-2.9-6.9-3.1-9.7-0.6C227.4,372.9,227.4,372.9,227.3,373z"/>
		<path class="st2" d="M262.6,319.4c3.8,0,6.9-3,6.9-6.7c0,0,0-0.1,0-0.1v-21.5c0-3.8-3.1-6.9-6.9-6.9c-3.8,0-6.8,3.1-6.8,6.8
			c0,0,0,0.1,0,0.1v21.5C255.7,316.3,258.8,319.4,262.6,319.4z"/>
		<path class="st2" d="M288.5,328.3c1.8,0,3.6-0.7,4.8-2.1l14.9-15.2c2.7-2.7,2.7-7,0-9.7c-2.7-2.7-7-2.7-9.7,0l-15.3,15.2
			c-2.7,2.7-2.6,7.1,0.1,9.8c1.3,1.2,3,1.9,4.7,2H288.5z"/>
	</g>
</g>
</svg>
