<?xml version="1.0" encoding="utf-8"?>
<!-- Generator: Adobe Illustrator 19.2.1, SVG Export Plug-In . SVG Version: 6.00 Build 0)  -->
<svg version="1.1" id="Livello_1" xmlns="http://www.w3.org/2000/svg" xmlns:xlink="http://www.w3.org/1999/xlink" x="0px" y="0px"
	 viewBox="0 0 144.3 184.2" style="enable-background:new 0 0 144.3 184.2;" xml:space="preserve">
<style type="text/css">
	.st0{clip-path:url(#SVGID_2_);}
	.st1{fill:#EF6C00;}
	.st2{fill:#FF9800;}
</style>
<g>
	<g>
		<defs>
			<path id="SVGID_1_" d="M138,34.4L79.3,3.6c-3.8-2-8.5-2-12.4,0L8.2,34.4c-3.8,2-6.2,5.7-6.2,9.8V106c0,4.1,2.4,7.7,6.2,9.7
				l29.4,15.5v31.6c0,1.9,1.6,3.3,3.7,3.3c0.7,0,1.3-0.2,1.8-0.4l95-50c3.8-2,6.2-5.7,6.2-9.7V44.2C144.2,40.1,141.9,36.4,138,34.4
				L138,34.4z"/>
		</defs>
		<clipPath id="SVGID_2_">
			<use xlink:href="#SVGID_1_"  style="overflow:visible;"/>
		</clipPath>
		<g class="st0">
			<path class="st1" d="M144.2,37.6L73.1,75L2,37.6v74.8l35.6,18.7v37.4l106.6-56.1V37.6z"/>
			<g>
				<path class="st2" d="M73.1,75L2,37.6L73.1,0.2l71.1,37.4L73.1,75z"/>
				<path class="st2" d="M71.9,73.9L2.4,37.4L2,37.6L73.1,75l71.1-37.4l-1.6-0.9L71.9,73.9z"/>
				<path class="st2" d="M73.1,75.5v-0.4L2.4,37.9L2,38.1L73.1,75.5z"/>
			</g>
		</g>
	</g>
</g>
</svg>
