<?xml version="1.0" encoding="utf-8"?>
<!-- Generator: Adobe Illustrator 19.2.1, SVG Export Plug-In . SVG Version: 6.00 Build 0)  -->
<svg version="1.1" id="Livello_1" xmlns="http://www.w3.org/2000/svg" xmlns:xlink="http://www.w3.org/1999/xlink" x="0px" y="0px"
	 viewBox="0 0 126.4 127" style="enable-background:new 0 0 126.4 127;" xml:space="preserve">
<style type="text/css">
	.st0{fill:#E01E5A;}
	.st1{fill:#36C5F0;}
	.st2{fill:#2EB67D;}
	.st3{fill:#ECB22E;}
</style>
<g>
	<path class="st0" d="M27.2,80c0,7.3-5.9,13.2-13.2,13.2S0.8,87.3,0.8,80S6.7,66.8,14,66.8h13.2V80z M33.8,80
		c0-7.3,5.9-13.2,13.2-13.2S60.2,72.7,60.2,80v33c0,7.3-5.9,13.2-13.2,13.2s-13.2-5.9-13.2-13.2V80z"/>
	<path class="st1" d="M47,27c-7.3,0-13.2-5.9-13.2-13.2S39.7,0.6,47,0.6s13.2,5.9,13.2,13.2V27H47z M47,33.7
		c7.3,0,13.2,5.9,13.2,13.2S54.3,60.1,47,60.1H13.9c-7.3,0-13.2-5.9-13.2-13.2s5.9-13.2,13.2-13.2H47z"/>
	<path class="st2" d="M99.9,46.9c0-7.3,5.9-13.2,13.2-13.2c7.3,0,13.2,5.9,13.2,13.2s-5.9,13.2-13.2,13.2H99.9V46.9z M93.3,46.9
		c0,7.3-5.9,13.2-13.2,13.2c-7.3,0-13.2-5.9-13.2-13.2V13.8c0-7.3,5.9-13.2,13.2-13.2c7.3,0,13.2,5.9,13.2,13.2
		C93.3,13.8,93.3,46.9,93.3,46.9z"/>
	<path class="st3" d="M80.1,99.8c7.3,0,13.2,5.9,13.2,13.2c0,7.3-5.9,13.2-13.2,13.2c-7.3,0-13.2-5.9-13.2-13.2V99.8H80.1z
		 M80.1,93.2c-7.3,0-13.2-5.9-13.2-13.2c0-7.3,5.9-13.2,13.2-13.2h33.1c7.3,0,13.2,5.9,13.2,13.2c0,7.3-5.9,13.2-13.2,13.2H80.1z"/>
</g>
</svg>
