<?xml version="1.0" encoding="utf-8"?>
<!-- Generator: Adobe Illustrator 19.2.1, SVG Export Plug-In . SVG Version: 6.00 Build 0)  -->
<svg version="1.1" id="Layer_1" xmlns="http://www.w3.org/2000/svg" xmlns:xlink="http://www.w3.org/1999/xlink" x="0px" y="0px"
	 viewBox="0 0 600 600" style="enable-background:new 0 0 600 600;" xml:space="preserve">
<style type="text/css">
	.st0{fill:#73CB0B;}
	.st1{fill:#D8DADB;}
</style>
<title>perfex</title>
<path class="st0" d="M273,445.9c-70.6,0-127.8-57.6-127.8-128.2c0-70.6,57.6-127.8,128.2-127.8c51.6,0,98.4,31.2,117.8,78.9h85.4
	c-1.7-6.9-3.5-13.4-5.6-19.9l49.4-44.6l-24.3-42.9l-65.9,18.2c-5.6-6.5-11.7-12.6-18.6-18.6l19.9-62.4l-42.5-25.6l-50.3,45.5
	c-8.7-3-17.3-5.2-26-6.9l-15.6-63.7l-49.4-0.9l-16.9,65c-9.1,1.7-18.2,4.3-27.3,7.4l-46.4-48.1L114,94.9l18.2,66.7
	c-6.1,5.6-12.1,11.3-17.8,17.8l-65.9-18.2l-26,42l49.8,48.5c-2.6,8.2-5.2,16.5-6.5,25.1L1.3,295.1L0,344.5l66.3,17.8
	c1.7,9.1,4.3,17.8,7.4,26.4L23,432.4l23.4,43.3l68.5-18.6c5.2,6.1,10.8,11.7,16.9,16.9l-16,68.5l42,23.8l49.8-48.5
	c7.4,2.6,15.2,4.3,23,6.1l16,67.2h49.4l16.5-67.2c9.1-1.7,17.8-4.3,26.4-6.9l45.5,49l43.8-24.3l-18.2-65
	c6.9-6.1,13.4-12.1,19.5-19.1l63.7,19.1l25.1-42.5l-39.9-39H376.5C352.2,427.2,313.7,446.3,273,445.9L273,445.9z"/>
<path class="st1" d="M419.8,98.8c-45.9,0-83.2,37.3-82.8,83.6c0,45.9,37.3,83.2,83.6,82.8c45.9,0,82.8-37.3,82.8-83.2
	C503.5,136.1,465.8,98.8,419.8,98.8L419.8,98.8z M553.7,209.7c-1.3,5.6-2.6,11.7-4.8,16.9l30.8,30.3l-16.5,27.7l-41.2-12.6
	c-3.9,4.3-8.2,8.7-12.6,12.6l11.3,42l-27.7,16l-29.5-31.6c-5.6,1.7-11.3,3.5-17.3,4.8l-10.8,43.8h-32.1l-10-43.8
	c-5.2-0.9-10-2.2-15.2-3.9l-32.1,31.6l-27.3-15.2l10.4-44.2c-3.9-3.5-7.8-7.4-11.3-11.3l-44.2,12.1l-14.3-27.3l32.9-28.6
	c-2.2-5.6-3.5-11.3-4.8-17.3l-42.9-11.3l0.9-32.1l41.6-11.3c0.9-5.6,2.6-10.8,4.3-16.5l-32.5-31.2L276,82.3l42.5,11.3
	c3.5-3.9,7.4-7.8,11.3-11.3L318.5,39l28.2-15.2L376.9,55c5.6-2.2,11.7-3.5,17.8-4.8l11.3-42L438,9.1l10,41.6
	c5.6,1.3,11.3,2.6,16.9,4.3l32.5-29.9l27.7,16.5l-13,40.7c4.3,3.9,8.2,7.8,12.1,12.1l42.5-12.1l15.6,28.2l-32.1,29
	c2.2,6.5,3.9,13,5.2,19.5l43.8,11.3v32.1l-43.8,9.5L553.7,209.7z"/>
</svg>
