<svg xmlns="http://www.w3.org/2000/svg" viewBox="0 0 256.1 222.4"><path d="M256,56.76V23.9A23.88,23.88,0,0,0,232.2,0H23.8A23.81,23.81,0,0,0,0,23.9V173.4a23.9,23.9,0,0,0,23.9,23.9h98.8l45.1,25.1-10.3-25.1h74.7a23.9,23.9,0,0,0,23.9-23.9V58.9C256.1,58.18,256.06,57.47,256,56.76Z" transform="translate(0 0)" fill="#9b5c8f"/><path d="M26,58.4a7.53,7.53,0,0,1,5.9-2.9c4.8-.4,7.5,1.9,8.1,6.7,2.9,19.6,6.1,36.1,9.5,49.7L70,72.9c1.9-3.6,4.2-5.4,7-5.6,4.1-.3,6.6,2.3,7.7,7.9a169.64,169.64,0,0,0,8.9,32C96,83.4,100.2,66.3,106,55.7a7.28,7.28,0,0,1,6.2-4.1,8.09,8.09,0,0,1,5.9,1.9,7.32,7.32,0,0,1,2.9,5.3,8.48,8.48,0,0,1-.9,4.5c-3.6,6.7-6.6,18.1-9.1,33.8-2.3,15.3-3.2,27.1-2.6,35.7a11.5,11.5,0,0,1-1.1,6.2,6,6,0,0,1-5,3.4c-2.4.2-5-.9-7.4-3.5q-13-13.35-20.7-39.9Q65,117,60.7,126c-5.5,10.6-10.2,16-14.1,16.3-2.5.2-4.7-2-6.6-6.5-4.8-12.3-9.9-35.9-15.4-71A7.68,7.68,0,0,1,26,58.4ZM227.1,73.1a21.58,21.58,0,0,0-15-10.9,23.55,23.55,0,0,0-5.1-.6c-9,0-16.3,4.7-22,14a49.53,49.53,0,0,0-7.3,26.4c0,7.2,1.5,13.4,4.5,18.5a21.58,21.58,0,0,0,15,10.9,23.55,23.55,0,0,0,5.1.6c9.1,0,16.4-4.7,22-14a49.63,49.63,0,0,0,7.3-26.5C231.7,84.2,230.1,78.1,227.1,73.1ZM215.3,99c-1.3,6.2-3.6,10.8-7.1,13.9-2.7,2.4-5.2,3.5-7.6,3-2.2-.5-4.1-2.4-5.5-6.1a24.26,24.26,0,0,1-1.7-8.5,30.17,30.17,0,0,1,.7-6.8,28.31,28.31,0,0,1,5-11.1c3.1-4.6,6.4-6.5,9.7-5.8,2.2,0.5,4.1,2.4,5.5,6.1a24.26,24.26,0,0,1,1.7,8.5A30.78,30.78,0,0,1,215.3,99ZM168.5,73.1a21.79,21.79,0,0,0-15-10.9,23.55,23.55,0,0,0-5.1-.6c-9,0-16.3,4.7-22,14a49.53,49.53,0,0,0-7.3,26.4c0,7.2,1.5,13.4,4.5,18.5a21.58,21.58,0,0,0,15,10.9,23.55,23.55,0,0,0,5.1.6c9.1,0,16.4-4.7,22-14A49.63,49.63,0,0,0,173,91.5C173,84.2,171.5,78.1,168.5,73.1ZM156.6,99c-1.3,6.2-3.6,10.8-7.1,13.9-2.7,2.4-5.2,3.5-7.6,3-2.2-.5-4.1-2.4-5.5-6.1a24.26,24.26,0,0,1-1.7-8.5,30.17,30.17,0,0,1,.7-6.8,28.31,28.31,0,0,1,5-11.1c3.1-4.6,6.4-6.5,9.7-5.8,2.2,0.5,4.1,2.4,5.5,6.1a24.26,24.26,0,0,1,1.7,8.5,25.77,25.77,0,0,1-.7,6.8h0Z" transform="translate(0 0)" fill="#fff"/></svg>