<?xml version="1.0" encoding="iso-8859-1"?>
<!-- Generator: Adobe Illustrator 19.0.0, SVG Export Plug-In . SVG Version: 6.00 Build 0)  -->
<svg version="1.1" id="Capa_1" xmlns="http://www.w3.org/2000/svg" xmlns:xlink="http://www.w3.org/1999/xlink" x="0px" y="0px"
	 viewBox="0 0 512.045 512.045" style="enable-background:new 0 0 512.045 512.045;" xml:space="preserve">
<path style="fill:#2196F3;" d="M495.438,200.533c-2.029-9.562-4.629-18.994-7.787-28.245C455.769,70.874,362.377,1.391,256.078,0
	C130.552,3.336,26.296,97.882,10.745,222.485c-0.842,5.831,3.202,11.24,9.032,12.082c4.143,0.598,8.253-1.282,10.509-4.807
	c53.25-78.02,142.005-124.223,236.459-123.093c67.669,0,101.312,42.432,106.091,85.333H169.401
	c4.111-12.525,9.788-24.481,16.896-35.584c3.21-4.94,1.807-11.546-3.132-14.756c-3.318-2.156-7.557-2.298-11.012-0.369
	c-25.325,13.884-47.799,32.428-66.24,54.656c-23.325,32.99-34.354,73.11-31.168,113.387c0,92.181,69.611,170.965,173.184,196.032
	c21.288,4.803,43.076,7.031,64.896,6.635h2.133c10.889,0.096,21.773-0.453,32.597-1.643c37.177-3.011,73.293-13.874,105.963-31.872
	c3.233-1.917,5.218-5.394,5.227-9.152v-81.92c0.004-5.891-4.769-10.67-10.66-10.673c-1.95-0.001-3.864,0.532-5.532,1.543
	c-23.912,13.832-50.49,22.427-77.973,25.216c-14.782,1.523-29.644,2.136-44.501,1.835c-89.003,0-134.4-34.923-138.368-106.667
	h309.035c5.891,0,10.667-4.776,10.667-10.667v-32C501.355,237.354,499.353,218.764,495.438,200.533z"/>
<g>
</g>
<g>
</g>
<g>
</g>
<g>
</g>
<g>
</g>
<g>
</g>
<g>
</g>
<g>
</g>
<g>
</g>
<g>
</g>
<g>
</g>
<g>
</g>
<g>
</g>
<g>
</g>
<g>
</g>
</svg>
