<?xml version="1.0" encoding="iso-8859-1"?>
<!-- Generator: Adobe Illustrator 19.0.0, SVG Export Plug-In . SVG Version: 6.00 Build 0)  -->
<svg version="1.1" id="Capa_1" xmlns="http://www.w3.org/2000/svg" xmlns:xlink="http://www.w3.org/1999/xlink" x="0px" y="0px"
	 viewBox="0 0 494.046 494.046" style="enable-background:new 0 0 494.046 494.046;" xml:space="preserve">
<g>
	<path style="fill:#2196F3;" d="M238.989,84.018c4.537-3.758,5.169-10.482,1.411-15.019c-2.369-2.86-6.055-4.282-9.731-3.755
		C128.216,82.808,53.915,172.514,55.736,276.445c0.04,8.742,0.653,17.472,1.835,26.133c0.635,4.822,4.452,8.604,9.28,9.195
		c0.44,0.032,0.882,0.032,1.323,0c4.377,0.001,8.309-2.672,9.92-6.741c16.879-41.817,38.878-81.379,65.493-117.781
		C170.986,149.019,203.033,114.342,238.989,84.018z"/>
	<path style="fill:#2196F3;" d="M458.424,242.845c-10.537-76.605-62.266-141.247-134.699-168.32
		c-3.609-1.307-7.642-0.573-10.56,1.92c-19.651,17.058-38.112,35.441-55.253,55.019c-3.912,4.405-3.512,11.147,0.893,15.059
		c1.706,1.515,3.853,2.443,6.126,2.648c38.101,3.456,71.317,37.525,83.904,84.523H183.352c-3.498-0.001-6.774,1.713-8.768,4.587
		c-13.675,19.712-26.624,39.467-38.4,58.709l0,0l0,0c-18.33,28.882-33.534,59.633-45.355,91.733
		c-1.068,3.267-0.496,6.849,1.536,9.621c0.175,0.261,0.368,0.511,0.576,0.747c36.517,56.005,98.648,90.01,165.504,90.581
		c84.889-0.929,160.139-54.835,188.331-134.912c2.074-5.514-0.715-11.665-6.229-13.739c-1.2-0.451-2.472-0.683-3.755-0.683h-88.533
		c-4.054,0-7.757,2.298-9.557,5.931c-13.387,33.157-44.575,55.723-80.256,58.069c-41.045,0-76.608-34.603-90.048-85.333h279.467
		c5.347,0.054,9.908-3.859,10.667-9.152c1.69-11.093,2.582-22.294,2.667-33.515C461.08,265.122,460.153,253.928,458.424,242.845z"/>
</g>
<path style="fill:#FFC107;" d="M399.522,10.312C364.514-14.947,297.805,6.984,225.4,67.485
	c-37.357,31.492-70.651,67.509-99.115,107.221c-27.647,37.852-50.498,78.983-68.032,122.453c-0.143,0.355-0.264,0.718-0.363,1.088
	c-34.133,85.547-33.323,157.056,2.133,182.336c11.621,8.075,25.27,12.738,39.403,13.461c2.392,0.019,4.78-0.209,7.125-0.683
	c6.405-1.062,12.033-4.853,15.424-10.389c2.997-5.024,1.389-11.524-3.605-14.571c-6.571-4.011-26.56-16.256-7.403-72.811
	c11.356-30.589,25.885-59.905,43.349-87.467c11.669-18.944,24.405-38.4,37.824-57.728l15.083-21.205
	c20.808-28.986,43.073-56.897,66.709-83.627c16.486-18.848,34.241-36.546,53.141-52.971c40.299-34.539,58.048-33.813,63.787-32
	s9.728,8.107,12.096,18.539c1.126,5.252,6.028,8.811,11.371,8.256c5.283-0.492,9.4-4.792,9.664-10.091
	C425.549,37.81,411.554,19.122,399.522,10.312z"/>
<g>
</g>
<g>
</g>
<g>
</g>
<g>
</g>
<g>
</g>
<g>
</g>
<g>
</g>
<g>
</g>
<g>
</g>
<g>
</g>
<g>
</g>
<g>
</g>
<g>
</g>
<g>
</g>
<g>
</g>
</svg>
